<svg width="17" height="18" viewBox="0 0 17 18" fill="none" xmlns="http://www.w3.org/2000/svg">
<path fill-rule="evenodd" clip-rule="evenodd" d="M16.5403 0.969691C16.7441 1.17342 16.8131 1.47584 16.7179 1.74778L11.4679 16.7478C11.3663 17.038 11.0978 17.2369 10.7906 17.2494C10.4833 17.2619 10.1995 17.0856 10.0747 16.8046L7.19181 10.3182L0.70541 7.43538C0.424399 7.31049 0.248102 7.02671 0.260637 6.71945C0.273172 6.41219 0.472 6.14371 0.762251 6.04213L15.7623 0.792127C16.0342 0.696948 16.3366 0.765962 16.5403 0.969691ZM8.65457 9.91612L10.6771 14.4667L14.2164 4.35429L8.65457 9.91612ZM13.1558 3.29362L3.04332 6.83297L7.59391 8.85546L13.1558 3.29362Z" fill="#575757"/>
</svg>
