<svg width="36" height="40" viewBox="0 0 36 40" fill="none" xmlns="http://www.w3.org/2000/svg">
<path d="M7.25 2.38379L2 9.38379V33.8838C2 34.812 2.36875 35.7023 3.02513 36.3587C3.6815 37.015 4.57174 37.3838 5.5 37.3838H30C30.9283 37.3838 31.8185 37.015 32.4749 36.3587C33.1313 35.7023 33.5 34.812 33.5 33.8838V9.38379L28.25 2.38379H7.25Z" stroke="#FF481C" stroke-width="3.5" stroke-linecap="round" stroke-linejoin="round"/>
<path d="M2 9.38379H33.5" stroke="#FF481C" stroke-width="3.5" stroke-linecap="round" stroke-linejoin="round"/>
<path d="M24.75 16.3838C24.75 18.2403 24.0125 20.0208 22.6997 21.3335C21.387 22.6463 19.6065 23.3838 17.75 23.3838C15.8935 23.3838 14.113 22.6463 12.8003 21.3335C11.4875 20.0208 10.75 18.2403 10.75 16.3838" stroke="#FF481C" stroke-width="3.5" stroke-linecap="round" stroke-linejoin="round"/>
</svg>
