<svg width="39" height="39" viewBox="0 0 39 39" fill="none" xmlns="http://www.w3.org/2000/svg">
<path d="M15.9014 21.1337C16.6529 22.1385 17.6117 22.9698 18.7128 23.5714C19.8139 24.1729 21.0315 24.5307 22.283 24.6203C23.5345 24.7099 24.7906 24.5294 25.9662 24.0908C27.1418 23.6523 28.2093 22.9661 29.0964 22.0787L34.3464 16.8287C35.9403 15.1785 36.8222 12.9682 36.8023 10.674C36.7823 8.37975 35.8621 6.18514 34.2398 4.56282C32.6175 2.9405 30.4228 2.02027 28.1286 2.00033C25.8344 1.98039 23.6241 2.86235 21.9739 4.45623L18.9639 7.44873" stroke="#FF481C" stroke-width="3.5" stroke-linecap="round" stroke-linejoin="round"/>
<path d="M22.9012 17.6337C22.1497 16.629 21.1909 15.7976 20.0898 15.196C18.9887 14.5945 17.7711 14.2367 16.5196 14.1471C15.2681 14.0575 14.012 14.2381 12.8364 14.6766C11.6608 15.1151 10.5933 15.8013 9.70623 16.6887L4.45623 21.9387C2.86235 23.589 1.98039 25.7992 2.00033 28.0935C2.02027 30.3877 2.9405 32.5823 4.56282 34.2046C6.18514 35.8269 8.37975 36.7472 10.674 36.7671C12.9682 36.787 15.1785 35.9051 16.8287 34.3112L19.8212 31.3187" stroke="#FF481C" stroke-width="3.5" stroke-linecap="round" stroke-linejoin="round"/>
</svg>
