<svg width="32" height="32" viewBox="0 0 32 32" fill="none" xmlns="http://www.w3.org/2000/svg">
<path d="M4.59625 8.42916C-0.63625 13.6617 -0.63625 22.1717 4.59625 27.4042C7.22208 30.03 10.6529 31.3333 14.0838 31.3333C17.5146 31.3333 20.9454 30.03 23.5712 27.4042C30.2412 20.7342 31.3337 0.666656 31.3337 0.666656C31.3337 0.666656 11.2663 1.75916 4.59625 8.42916ZM20.8687 24.7017C19.0479 26.5033 16.6521 27.5 14.0838 27.5C12.3779 27.5 10.7679 27.0208 9.33042 26.1967C11.0938 20.6767 14.3521 15.8275 18.6837 12.1667C13.6429 14.7733 9.40708 18.7983 6.47458 23.6667C3.63792 19.91 3.88708 14.5625 7.31792 11.1317C10.6529 7.79666 19.9104 5.74582 27.1171 4.88332C26.2546 12.09 24.2038 21.3475 20.8687 24.7017Z" fill="#FF481C"/>
</svg>
