<svg width="11" height="14" viewBox="0 0 11 14" fill="none" xmlns="http://www.w3.org/2000/svg">
<path d="M0.873047 13.5H2.12305V12.2619C2.12305 11.2343 2.96055 10.4048 3.99805 10.4048H7.74805C8.78555 10.4048 9.62305 11.2343 9.62305 12.2619V13.5H10.873V12.2619C10.873 10.5533 9.47305 9.16667 7.74805 9.16667H3.99805C2.27305 9.16667 0.873047 10.5533 0.873047 12.2619V13.5ZM5.87305 7.92857C7.9418 7.92857 9.62305 6.26333 9.62305 4.21429C9.62305 2.16524 7.9418 0.5 5.87305 0.5C3.8043 0.5 2.12305 2.16524 2.12305 4.21429C2.12305 6.26333 3.8043 7.92857 5.87305 7.92857ZM5.87305 6.69048C4.4918 6.69048 3.37305 5.58238 3.37305 4.21429C3.37305 2.84619 4.4918 1.7381 5.87305 1.7381C7.2543 1.7381 8.37305 2.84619 8.37305 4.21429C8.37305 5.58238 7.2543 6.69048 5.87305 6.69048Z" fill="white"/>
</svg>
