<svg width="11" height="14" viewBox="0 0 11 14" fill="none" xmlns="http://www.w3.org/2000/svg">
<path d="M0.497559 13.5H1.74756V12.2619C1.74756 11.2343 2.58506 10.4048 3.62256 10.4048H7.37256C8.41006 10.4048 9.24756 11.2343 9.24756 12.2619V13.5H10.4976V12.2619C10.4976 10.5533 9.09756 9.16667 7.37256 9.16667H3.62256C1.89756 9.16667 0.497559 10.5533 0.497559 12.2619V13.5ZM5.49756 7.92857C7.56631 7.92857 9.24756 6.26333 9.24756 4.21429C9.24756 2.16524 7.56631 0.5 5.49756 0.5C3.42881 0.5 1.74756 2.16524 1.74756 4.21429C1.74756 6.26333 3.42881 7.92857 5.49756 7.92857ZM5.49756 6.69048C4.11631 6.69048 2.99756 5.58238 2.99756 4.21429C2.99756 2.84619 4.11631 1.7381 5.49756 1.7381C6.87881 1.7381 7.99756 2.84619 7.99756 4.21429C7.99756 5.58238 6.87881 6.69048 5.49756 6.69048Z" fill="#282929"/>
</svg>
