<svg width="54" height="53" viewBox="0 0 54 53" fill="none" xmlns="http://www.w3.org/2000/svg">
<path d="M41.8328 40.5445C39.7535 40.5445 37.7977 39.7349 36.3273 38.2652L28.3779 30.3156C27.8197 29.756 26.847 29.7576 26.2891 30.3156L18.3106 38.2942C16.8402 39.7639 14.8844 40.5736 12.8051 40.5736H11.2385L21.3067 50.6416C24.451 53.7858 29.549 53.7858 32.6935 50.6416L42.7903 40.5445H41.8328Z" fill="#FE471B"/>
<path d="M12.8049 12.4263C14.8842 12.4263 16.84 13.2359 18.3104 14.7057L26.2888 22.6855C26.8634 23.2603 27.8016 23.2625 28.3777 22.6848L36.3271 14.7347C37.7975 13.265 39.7532 12.4554 41.8325 12.4554H42.79L32.6935 2.35859C29.5488 -0.785871 24.4508 -0.785871 21.3065 2.35859L11.2388 12.4263L12.8049 12.4263Z" fill="#FE471B"/>
<path d="M51.1418 20.8065L45.0403 14.705C44.906 14.7588 44.7605 14.7923 44.6069 14.7923H41.8327C40.3985 14.7923 38.9945 15.3741 37.981 16.3883L30.0319 24.3376C29.288 25.0816 28.3105 25.4537 27.3339 25.4537C26.3564 25.4537 25.3796 25.0816 24.636 24.3384L16.6568 16.3592C15.6433 15.3448 14.2393 14.7633 12.8051 14.7633H9.39395C9.24845 14.7633 9.11249 14.729 8.98414 14.6807L2.85835 20.8065C-0.286115 23.9509 -0.286115 29.0487 2.85835 32.1932L8.98389 38.3188C9.11248 38.2704 9.24845 38.2361 9.39395 38.2361H12.8051C14.2393 38.2361 15.6433 37.6546 16.6568 36.6405L24.6352 28.662C26.0773 27.2211 28.5912 27.2206 30.0319 28.6627L37.981 36.6114C38.9945 37.6256 40.3985 38.2073 41.8327 38.2073H44.6069C44.7605 38.2073 44.906 38.2408 45.0403 38.2947L51.1418 32.1932C54.2861 29.0487 54.2861 23.9509 51.1418 20.8064" fill="#FE471B"/>
</svg>
