<svg width="25" height="25" viewBox="0 0 25 25" fill="none" xmlns="http://www.w3.org/2000/svg">
<path d="M17.1875 15.125H16.1012L15.7163 14.7537C17.0638 13.1862 17.875 11.1512 17.875 8.9375C17.875 4.00125 13.8737 0 8.9375 0C4.00125 0 0 4.00125 0 8.9375C0 13.8737 4.00125 17.875 8.9375 17.875C11.1512 17.875 13.1862 17.0638 14.7537 15.7163L15.125 16.1012V17.1875L22 24.0487L24.0487 22L17.1875 15.125ZM8.9375 15.125C5.51375 15.125 2.75 12.3612 2.75 8.9375C2.75 5.51375 5.51375 2.75 8.9375 2.75C12.3612 2.75 15.125 5.51375 15.125 8.9375C15.125 12.3612 12.3612 15.125 8.9375 15.125Z" fill="#848484"/>
</svg>
