<svg width="36" height="36" viewBox="0 0 36 36" fill="none" xmlns="http://www.w3.org/2000/svg">
<path d="M10.75 1.75879H5.5C4.57174 1.75879 3.6815 2.12754 3.02513 2.78392C2.36875 3.44029 2 4.33053 2 5.25879V10.5088M33.5 10.5088V5.25879C33.5 4.33053 33.1313 3.44029 32.4749 2.78392C31.8185 2.12754 30.9283 1.75879 30 1.75879H24.75M24.75 33.2588H30C30.9283 33.2588 31.8185 32.89 32.4749 32.2337C33.1313 31.5773 33.5 30.687 33.5 29.7588V24.5088M2 24.5088V29.7588C2 30.687 2.36875 31.5773 3.02513 32.2337C3.6815 32.89 4.57174 33.2588 5.5 33.2588H10.75" stroke="#FF481C" stroke-width="3.5" stroke-linecap="round" stroke-linejoin="round"/>
</svg>
