<svg width="39" height="40" viewBox="0 0 39 40" fill="none" xmlns="http://www.w3.org/2000/svg">
<g clip-path="url(#clip0_56_1322)">
<path d="M32.9625 5.81282C29.3903 2.06655 24.6403 0.00228568 19.5795 0C9.15096 0 0.664235 8.89125 0.66006 19.8199C0.658844 23.3132 1.52981 26.7233 3.18528 29.7291L0.501221 40L10.5306 37.2439C13.2939 38.8233 16.4052 39.6555 19.5714 39.6568H19.5794H19.5795C30.0063 39.6568 38.4943 30.764 38.4988 19.8359C38.5005 14.5394 36.5342 9.55935 32.9625 5.81282ZM19.5795 36.3092H19.5734C16.7512 36.3076 13.9837 35.5136 11.5698 34.0124L10.9953 33.6555L5.04364 35.2909L6.63266 29.2117L6.25837 28.5885C4.68415 25.9653 3.8531 22.9339 3.85429 19.8211C3.85774 10.7376 10.9116 3.34778 19.5854 3.34778C23.7858 3.34961 27.7336 5.06544 30.7027 8.17922C33.6717 11.293 35.3055 15.4323 35.3043 19.8345C35.3006 28.9183 28.2465 36.3092 19.5795 36.3092Z" fill="#E0E0E0"/>
<path fill-rule="evenodd" clip-rule="evenodd" d="M14.9043 11.4054C14.5543 10.5898 14.1857 10.5735 13.8527 10.5592C13.5804 10.547 13.2685 10.5477 12.9572 10.5477C12.6457 10.5477 12.1393 10.6704 11.7112 11.1605C11.2828 11.6505 10.0754 12.8352 10.0754 15.2446C10.0754 17.6543 11.7501 19.9826 11.9836 20.3096C12.2172 20.6361 15.2164 25.7386 19.9661 27.7016C23.9136 29.333 24.7168 29.0085 25.5737 28.9268C26.4305 28.8452 28.3384 27.7424 28.7278 26.5988C29.1173 25.4554 29.1173 24.4754 29.0004 24.2705C28.8836 24.0664 28.572 23.944 28.1047 23.6991C27.6373 23.4542 25.34 22.2693 24.9116 22.106C24.4832 21.9427 24.1716 21.8611 23.86 22.3514C23.5485 22.8412 22.6534 23.944 22.3808 24.2705C22.1082 24.5978 21.8355 24.6386 21.3682 24.3937C20.9008 24.148 19.3958 23.6315 17.6103 21.9631C16.2212 20.6652 15.2833 19.0621 15.0107 18.5718C14.738 18.082 14.9814 17.8167 15.2159 17.5726C15.4257 17.3532 15.6832 17.0009 15.9169 16.7149C16.1501 16.429 16.228 16.2249 16.3838 15.8984C16.5395 15.5713 16.4616 15.2854 16.3448 15.0405C16.228 14.7956 15.3198 12.3737 14.9043 11.4054Z" fill="white"/>
<path d="M32.8079 5.74977C29.2766 2.04651 24.5812 0.00598045 19.5785 0.00366211C9.26968 0.00366211 0.880383 8.79284 0.876239 19.596C0.875024 23.0493 1.73599 26.4202 3.37245 29.3916L0.719238 39.5445L10.6335 36.82C13.3651 38.3812 16.4407 39.2039 19.5705 39.2052H19.5784H19.5785C29.8857 39.2052 38.2762 30.4145 38.2806 19.6118C38.2823 14.3762 36.3386 9.4533 32.8079 5.74977ZM19.5785 35.8961H19.5725C16.7827 35.8945 14.0469 35.1096 11.6607 33.6257L11.0928 33.2729L5.20951 34.8894L6.78026 28.8801L6.41027 28.264C4.85413 25.671 4.03261 22.6743 4.03382 19.5973C4.03722 10.6181 11.0101 3.31307 19.5844 3.31307C23.7366 3.31487 27.639 5.01101 30.5741 8.08904C33.5089 11.1671 35.124 15.2588 35.1228 19.6106C35.1191 28.59 28.146 35.8961 19.5785 35.8961Z" fill="white"/>
</g>
<defs>
<clipPath id="clip0_56_1322">
<rect width="38" height="40" fill="white" transform="translate(0.5)"/>
</clipPath>
</defs>
</svg>
