<svg width="16" height="16" viewBox="0 0 16 16" fill="none" xmlns="http://www.w3.org/2000/svg">
<path fill-rule="evenodd" clip-rule="evenodd" d="M8.19141 0.29834C4.05192 0.29834 0.696045 3.65422 0.696045 7.7937C0.696045 11.9332 4.05192 15.2891 8.19141 15.2891C12.3309 15.2891 15.6868 11.9332 15.6868 7.7937C15.6868 3.65422 12.3309 0.29834 8.19141 0.29834ZM11.4403 6.5263C11.5001 6.45816 11.5456 6.37844 11.5743 6.2919C11.6028 6.20605 11.6139 6.11474 11.6068 6.02412C11.5996 5.93349 11.5744 5.84559 11.5327 5.7645C11.4909 5.6841 11.4335 5.61255 11.3637 5.55395C11.2939 5.49603 11.2131 5.45242 11.1262 5.42585C11.0394 5.39928 10.948 5.39042 10.8576 5.39996C10.7672 5.40881 10.6797 5.43675 10.5999 5.48036C10.5203 5.52397 10.4502 5.58325 10.3937 5.65412L7.46368 9.16944L5.94757 7.65265C5.81906 7.52864 5.64694 7.45981 5.46827 7.46118C5.28961 7.46322 5.11872 7.53477 4.99239 7.66082C4.86605 7.78756 4.79437 7.95792 4.7928 8.13712C4.79124 8.31565 4.85992 8.48736 4.98407 8.61615L7.02826 10.6603C7.09524 10.7271 7.17538 10.7796 7.26362 10.8137C7.35186 10.8477 7.4463 10.8634 7.54088 10.8593C7.63539 10.8545 7.72806 10.8307 7.81282 10.7884C7.89759 10.7469 7.97275 10.6876 8.03332 10.6147L11.4403 6.5263Z" fill="#FF481C"/>
</svg>
