<svg width="27" height="27" viewBox="0 0 27 27" fill="none" xmlns="http://www.w3.org/2000/svg">
<path fill-rule="evenodd" clip-rule="evenodd" d="M0.499878 0.5H26.5001V26.5H0.499878V0.5Z" fill="#DBDBDB"/>
<path fill-rule="evenodd" clip-rule="evenodd" d="M19.8183 5.77429L21.9946 7.26551L24.1245 5.84209L24.1308 2.9179L19.8183 5.77429ZM7.23352 21.2716L5.06466 19.7927L2.87183 21.2742L2.89364 24.1401L7.23352 21.2716ZM15.4699 8.62263L17.5954 10.0524L7.49618 16.8857L13.7366 21.0976L16.6674 19.1112L14.3908 17.6034L19.6451 14.0816L24.0412 16.9984L13.4199 24.0786L2.93981 17.0477L15.4699 8.62263ZM11.4913 18.3163L9.36597 16.8866L19.4652 10.0533L13.2248 5.8414L10.294 7.8276L12.5704 9.33577L7.31633 12.8573L2.92006 9.94061L13.5035 2.86033L24.0112 9.92223L11.4913 18.3163Z" fill="white"/>
</svg>
