<svg width="29" height="29" viewBox="0 0 29 29" fill="none" xmlns="http://www.w3.org/2000/svg">
<rect width="29" height="29" rx="2" fill="#DBDBDB"/>
<path fill-rule="evenodd" clip-rule="evenodd" d="M22.4055 12.1449C22.7339 12.1449 23 12.4047 23 12.7252V18.9637C23 19.1709 22.8867 19.3624 22.7028 19.4662L14.7961 23.9224C14.7043 23.9742 14.6015 24 14.4989 24C14.3964 24 14.2939 23.9742 14.2022 23.9226L6.29773 19.4765C6.11363 19.3729 6 19.1813 6 18.9737V12.7382C6 12.4177 6.2663 12.1579 6.59467 12.1579C6.92294 12.1579 7.1889 12.4177 7.1889 12.7382V18.6384L14.4986 22.7497L21.8111 18.6285V12.7252C21.8111 12.4047 22.0772 12.1449 22.4055 12.1449ZM14.2035 5.078C14.3874 4.97406 14.6144 4.97406 14.7984 5.07767L22.7028 9.5325C22.8867 9.63622 23 9.82784 23 10.0351C23 10.2424 22.8867 10.434 22.7028 10.5377L14.7962 14.9939C14.7043 15.0456 14.6015 15.0715 14.4988 15.0715C14.3964 15.0715 14.294 15.0456 14.2022 14.9941L6.29775 10.5482C6.11366 10.4446 6.00036 10.2531 6.00002 10.0459C6.00002 9.83853 6.1131 9.64682 6.29697 9.54299L14.2035 5.078ZM14.5014 6.25047L7.7836 10.0443L14.4986 13.8212L21.2166 10.0351L14.5014 6.25047Z" fill="white"/>
</svg>
