<svg width="30" height="30" viewBox="0 0 30 30" fill="none" xmlns="http://www.w3.org/2000/svg">
<path fill-rule="evenodd" clip-rule="evenodd" d="M17.3401 17.7925H14.9341V29.5H13.4121V21.6564H12.349V29.5H0.5V0.5H29.5V29.5H17.3401V17.7925ZM12.889 8.19614C11.4156 8.19614 10.0085 8.31044 8.66629 8.52345C10.483 6.26415 13.2323 4.82311 16.3088 4.82311C18.7966 4.82311 21.0715 5.77255 22.8064 7.32853C20.9897 5.15042 18.289 3.75873 15.2781 3.75873C11.5792 3.75873 8.33917 5.85503 6.6205 8.95011C4.83692 9.40859 3.26558 10.047 1.97268 10.8327C3.26558 10.2593 4.73827 9.80148 6.35828 9.47353C5.68717 10.849 5.3276 12.4043 5.3276 14.0421C5.3276 17.1372 6.65295 19.9206 8.78052 21.8039C7.25851 20.0024 6.35828 17.6606 6.35828 15.1065C6.35828 12.8959 7.0294 10.8659 8.15874 9.19493C9.21298 9.07633 10.273 9.01628 11.3339 9.01505C19.3041 9.01505 25.768 12.4374 25.768 16.6456C25.768 18.5614 24.4426 20.2972 22.2657 21.6396C25.3591 20.2472 27.3231 18.1522 27.3231 15.8267C27.3231 11.6023 20.8586 8.19614 12.889 8.19614Z" fill="#DBDBDB"/>
</svg>
