<svg width="182" height="51" viewBox="0 0 182 51" fill="none" xmlns="http://www.w3.org/2000/svg">
<g clip-path="url(#clip0_56_1267)">
<path fill-rule="evenodd" clip-rule="evenodd" d="M168.687 31.2102C167.144 31.1989 165.644 30.7 164.403 29.7851C163.325 28.9421 162.452 27.8652 161.852 26.636C161.253 25.4067 160.941 24.0574 160.941 22.6901C160.941 21.3228 161.253 19.9734 161.852 18.7442C162.452 17.515 163.325 16.4381 164.403 15.595C165.64 14.6713 167.142 14.1715 168.687 14.17C169.99 14.1755 171.267 14.529 172.387 15.1936C173.644 15.9937 174.673 17.1022 175.377 18.413C176.082 19.7237 176.437 21.193 176.41 22.68C176.4 23.6774 176.23 24.6667 175.907 25.6104C175.438 27.1784 174.491 28.5612 173.196 29.5653C171.902 30.5693 170.325 31.1444 168.687 31.2102ZM176.43 10.8182C175.932 10.4337 175.408 10.0849 174.861 9.7745C173.027 8.71755 170.946 8.16111 168.828 8.16111C166.71 8.16111 164.629 8.71755 162.794 9.7745C160.542 11.1099 158.683 13.0166 157.408 15.301C156.133 17.5854 155.486 20.1659 155.534 22.7804C155.489 25.3971 156.136 27.9795 157.411 30.2666C158.686 32.5537 160.543 34.4646 162.794 35.8064C164.64 36.8334 166.715 37.3787 168.828 37.392H169.954C172.368 37.1561 174.661 36.2213 176.55 34.7025V36.7096C176.649 38.8515 175.898 40.946 174.46 42.539C173.022 44.132 171.013 45.0951 168.868 45.2196L170.879 51.1204H171.221C174.253 50.3771 176.952 48.6487 178.893 46.207C180.833 43.7653 181.905 40.7491 181.94 37.6328V13.4073L176.43 10.8182ZM44.7421 6.92444C40.9491 7.05537 37.3628 8.68166 34.7692 11.4469C32.1756 14.2121 30.7863 17.8907 30.9057 21.6765V34.7627H36.6776V21.6765C36.6122 19.4733 37.4203 17.3333 38.9265 15.7212C40.4326 14.1091 42.5152 13.155 44.722 13.0661V6.92444H44.7421ZM111.089 31.0094C110.023 30.9684 108.976 30.7163 108.009 30.2679C107.042 29.8195 106.174 29.1836 105.456 28.3973C104.737 27.6111 104.182 26.6901 103.823 25.6879C103.465 24.6857 103.309 23.6223 103.366 22.5596C103.334 21.1818 103.635 19.8165 104.244 18.5797C104.854 17.3428 105.753 16.2708 106.865 15.4545C108.067 14.5548 109.526 14.0625 111.028 14.0496C112.545 14.0492 114.023 14.5269 115.252 15.4144C116.344 16.244 117.229 17.3141 117.838 18.5413C118.448 19.7686 118.765 21.1197 118.765 22.4894C118.765 23.859 118.448 25.2102 117.838 26.4374C117.229 27.6646 116.344 28.7348 115.252 29.5643C114.03 30.4733 112.552 30.9723 111.028 30.9894L111.089 31.0094ZM117.685 10.0354C115.626 8.68884 113.209 7.9897 110.747 8.02833C108.773 8.06941 106.839 8.59318 105.116 9.55372C104.478 9.89419 103.873 10.2905 103.306 10.7379L97.7751 12.745V45.1995L103.306 43.072V34.3011L103.587 34.5018C105.637 36.0507 108.117 36.9272 110.686 37.0106H111.048C113.407 36.988 115.71 36.2915 117.685 35.0035C119.753 33.6385 121.443 31.7756 122.6 29.5867C123.756 27.3978 124.341 24.9535 124.302 22.4793C124.328 20.0187 123.736 17.5907 122.58 15.4169C121.425 13.2432 119.742 11.3931 117.685 10.0354ZM58.0154 31.0496C56.9464 31.0112 55.8957 30.7604 54.9249 30.3119C53.9542 29.8633 53.0828 29.2261 52.3618 28.4374C51.6408 27.6487 51.0847 26.7244 50.726 25.7186C50.3672 24.7128 50.2131 23.6457 50.2727 22.5797C50.2048 21.5088 50.3527 20.4353 50.7076 19.4225C51.0626 18.4096 51.6173 17.4781 52.3391 16.6829C53.061 15.8877 53.9352 15.2449 54.9101 14.7926C55.8851 14.3403 56.941 14.0877 58.0154 14.0496C59.081 14.0906 60.1277 14.3427 61.0948 14.7912C62.0619 15.2396 62.9299 15.8754 63.6485 16.6617C64.3671 17.448 64.9219 18.369 65.2807 19.3712C65.6394 20.3733 65.7949 21.4367 65.7381 22.4994C65.7381 23.3825 65.7381 28.4002 65.7381 28.4002C63.5161 30.0888 60.8081 31.0178 58.0154 31.0496ZM58.0154 8.02833C50.695 8.02833 44.7421 14.5112 44.7421 22.5195C44.7421 30.5277 50.7754 37.0106 58.0154 37.0106C60.8221 37.0021 63.5436 36.0473 65.7381 34.3011H71.329V22.5797C71.329 14.5714 65.2957 8.02833 58.0154 8.02833Z" fill="#0084BF"/>
<path fill-rule="evenodd" clip-rule="evenodd" d="M139.546 31.0295C138.473 30.9932 137.419 30.7464 136.442 30.303C135.465 29.8596 134.585 29.2284 133.853 28.4455C133.121 27.6626 132.551 26.7433 132.175 25.7403C131.799 24.7372 131.625 23.67 131.662 22.5998C131.608 21.5318 131.772 20.464 132.145 19.4613C132.517 18.4586 133.09 17.5419 133.828 16.7669C134.566 15.9919 135.455 15.3749 136.439 14.9532C137.424 14.5316 138.484 14.3142 139.556 14.3142C140.627 14.3142 141.688 14.5316 142.672 14.9532C143.657 15.3749 144.546 15.9919 145.284 16.7669C146.022 17.5419 146.595 18.4586 146.967 19.4613C147.339 20.464 147.504 21.5318 147.45 22.5998C147.45 23.4829 147.45 28.4805 147.45 28.4805C145.15 30.1396 142.384 31.0317 139.546 31.0295ZM139.546 8.16883C135.84 8.31015 132.34 9.90509 129.806 12.6072C127.271 15.3092 125.908 18.9001 126.011 22.5998C125.908 26.2994 127.271 29.8903 129.806 32.5924C132.34 35.2944 135.84 36.8894 139.546 37.0307C142.406 37.0296 145.185 36.084 147.45 34.3412H153.081V22.5998C153.184 18.9001 151.82 15.3092 149.286 12.6072C146.752 9.90509 143.252 8.31015 139.546 8.16883ZM6.57118 22.5998C6.50608 20.4397 7.30126 18.342 8.78261 16.7658C10.264 15.1896 12.3107 14.2634 14.4748 14.1901C15.5364 14.1868 16.586 14.4128 17.5518 14.8524C18.5409 15.3216 19.4269 15.9818 20.1588 16.7948C20.8906 17.6078 21.4536 18.5576 21.8154 19.5891C22.1661 20.5541 22.3431 21.5733 22.3383 22.5998C22.3398 23.6687 22.1491 24.7292 21.7752 25.7308C21.2039 27.3505 20.1428 28.7531 18.7384 29.745C17.3687 30.7144 15.7087 31.1888 14.0324 31.0897C11.9364 30.8961 9.99456 29.9079 8.60659 28.3286C7.21862 26.7492 6.49016 24.6989 6.57118 22.5998ZM15.3396 8.1889C14.2235 8.12838 13.1042 8.18895 12.0012 8.36954C10.3593 8.74313 8.80334 9.4242 7.41584 10.3766C7.13429 10.5773 6.85273 10.758 6.57118 10.9787V2.12751L0.940063 0V30.7084L6.57118 34.3412C7.1497 34.7664 7.7542 35.1552 8.38118 35.5053C9.92434 36.3358 11.6219 36.8413 13.3687 36.9906H14.4748C18.1806 36.8492 21.6809 35.2543 24.2152 32.5522C26.7494 29.8502 28.113 26.2593 28.0096 22.5596C28.119 19.0028 26.872 15.5371 24.5203 12.8623C22.1686 10.1875 18.8875 8.50293 15.3396 8.14876V8.1889Z" fill="#0084BF"/>
<path fill-rule="evenodd" clip-rule="evenodd" d="M86.7944 19.5891C86.7944 19.5891 82.2694 19.0673 81.3845 18.8264C79.7957 18.3849 78.8103 17.3211 79.0918 15.8961C79.2577 15.2688 79.6287 14.7148 80.1461 14.3221C80.6635 13.9294 81.2976 13.7204 81.9476 13.7285C82.2479 13.6887 82.5523 13.6887 82.8526 13.7285L91.0378 15.0331L90.4144 9.2928L84.2403 8.26919L83.0738 8.12869C82.6314 8.12869 82.209 8.12869 81.7666 8.12869C79.8681 8.17797 78.0416 8.86435 76.582 10.077C75.1224 11.2897 74.1149 12.9579 73.7222 14.8123C73.336 16.9814 73.8288 19.2147 75.0922 21.0213C76.3556 22.8279 78.2861 24.0599 80.4594 24.4463C80.676 24.5087 80.8983 24.549 81.123 24.5667L85.7888 25.1889C86.6741 25.3043 87.4783 25.7626 88.0278 26.4649C88.5772 27.1672 88.8277 28.0571 88.725 28.9422C88.5346 29.6699 88.1031 30.3119 87.5006 30.7638C86.8981 31.2157 86.1601 31.4508 85.4067 31.4309C85.066 31.4708 84.7218 31.4708 84.3811 31.4309L74.1244 29.6246L74.9087 35.6458L83.3353 37.0708C83.6809 37.1337 84.0302 37.174 84.3811 37.1913H85.5877C87.6104 37.1595 89.5618 36.4401 91.1195 35.1519C92.6771 33.8638 93.748 32.0839 94.155 30.1063C94.4902 28.2985 94.2633 26.4316 93.5048 24.7562C92.7463 23.0808 91.4925 21.677 89.9116 20.7332C88.9646 20.1518 87.8997 19.7884 86.7944 19.6694" fill="#0084BF"/>
</g>
<defs>
<clipPath id="clip0_56_1267">
<rect width="181" height="51" fill="white" transform="translate(0.940063)"/>
</clipPath>
</defs>
</svg>
