<svg width="29" height="29" viewBox="0 0 29 29" fill="none" xmlns="http://www.w3.org/2000/svg">
<rect width="29" height="29" rx="2" fill="#DBDBDB"/>
<path d="M7.43801 11.6127C6.61307 11.6127 5.88812 11.8377 5.28816 12.2877L4.91319 12.5626V8.26294L2.91333 8.8629V20.5371H4.93819V19.8121L5.31316 20.0871C5.93811 20.5121 6.66306 20.7371 7.46301 20.7371C9.76284 20.7371 11.6377 18.6872 11.6377 16.1624C11.6377 13.6376 9.73784 11.6127 7.43801 11.6127ZM7.28802 18.6872C5.93811 18.6872 4.91319 17.6123 4.91319 16.1874C4.91319 14.7625 5.93811 13.6626 7.28802 13.6626C8.63792 13.6626 9.66285 14.7375 9.66285 16.1624C9.63785 17.5873 8.63792 18.6872 7.28802 18.6872Z" fill="white"/>
<path d="M15.8374 15.2373L15.6124 15.1623C14.6624 14.8124 14.2625 14.5874 14.2625 14.0874C14.2625 13.5624 14.7874 13.3625 15.2874 13.3625C15.7874 13.3625 16.3873 13.5374 16.3873 14.2874V14.7124H18.3872V14.2874C18.3872 12.6125 17.1123 11.4126 15.2874 11.4126C13.3125 11.4126 12.2876 12.7375 12.2876 14.0624C12.2876 15.9373 13.8375 16.4872 15.0874 16.9372L15.2124 16.9872C16.1623 17.3372 16.6373 17.5872 16.6373 18.0121C16.6373 18.5871 16.0123 18.7871 15.4624 18.7871C14.8374 18.7871 14.0625 18.6121 14.0625 17.7371V17.2872H12.0626V17.7371C12.0626 19.537 13.4125 20.7369 15.4624 20.7369C17.2872 20.7369 18.6372 19.612 18.6372 18.0371C18.6122 16.2623 17.0623 15.6873 15.8374 15.2373Z" fill="white"/>
<path d="M23.0869 19.387H25.2368V18.6121H22.162L23.4869 17.3122C24.5618 16.2623 25.0868 15.3123 25.0868 14.3374C25.0868 12.8875 24.0619 11.4126 22.087 11.4126C20.6121 11.4126 19.0372 12.3375 19.0372 14.3374V14.6874H21.0121V14.3624C21.0121 13.6874 21.3871 13.3375 22.112 13.3375C22.587 13.3375 23.1119 13.6124 23.1119 14.3374C23.1119 14.9373 22.512 15.5873 22.087 16.0123L20.1372 17.9621C19.4622 18.6371 19.0622 19.562 19.0622 20.5119H25.2618V19.737H23.0869C22.9869 19.737 22.887 19.662 22.887 19.537C22.887 19.487 22.962 19.387 23.0869 19.387ZM26.0867 19.587C26.0867 19.737 25.9617 19.862 25.8117 19.862C25.6618 19.862 25.5368 19.737 25.5368 19.587C25.5368 19.437 25.6618 19.312 25.8117 19.312C25.9617 19.312 26.0867 19.437 26.0867 19.587Z" fill="white"/>
</svg>
