<svg width="19" height="18" viewBox="0 0 19 18" fill="none" xmlns="http://www.w3.org/2000/svg">
<path fill-rule="evenodd" clip-rule="evenodd" d="M9.53304 0.466553C7.21229 0.466553 6.92104 0.476686 6.00954 0.518109C5.09983 0.559709 4.47887 0.703533 3.93553 0.914557C3.3735 1.13252 2.89675 1.42407 2.42178 1.89857C1.94644 2.37288 1.65448 2.84898 1.43551 3.41005C1.22366 3.95281 1.07946 4.57308 1.03851 5.48118C0.997742 6.39141 0.987061 6.68244 0.987061 8.99997C0.987061 11.3175 0.997386 11.6075 1.03869 12.5177C1.08052 13.4262 1.22455 14.0462 1.43569 14.5888C1.65413 15.1501 1.94609 15.6262 2.42124 16.1005C2.89604 16.5752 3.37279 16.8674 3.93447 17.0854C4.47816 17.2964 5.09929 17.4402 6.00883 17.4818C6.92032 17.5233 7.2114 17.5334 9.53197 17.5334C11.8529 17.5334 12.1433 17.5233 13.0548 17.4818C13.9645 17.4402 14.5861 17.2964 15.1298 17.0854C15.6917 16.8674 16.1677 16.5752 16.6425 16.1005C17.1179 15.6262 17.4098 15.1501 17.6288 14.589C17.8389 14.0462 17.9831 13.426 18.0258 12.5179C18.0667 11.6076 18.0774 11.3175 18.0774 8.99997C18.0774 6.68244 18.0667 6.39159 18.0258 5.48136C17.9831 4.57291 17.8389 3.95281 17.6288 3.41023C17.4098 2.84898 17.1179 2.37288 16.6425 1.89857C16.1672 1.4239 15.6919 1.13234 15.1293 0.914557C14.5845 0.703533 13.9632 0.559709 13.0535 0.518109C12.142 0.476686 11.8518 0.466553 9.53037 0.466553H9.53304ZM8.76642 2.00432C8.99394 2.00397 9.2478 2.00432 9.533 2.00432C11.8146 2.00432 12.085 2.0125 12.986 2.05339C13.8192 2.09143 14.2714 2.23046 14.5726 2.34726C14.9714 2.50193 15.2557 2.68682 15.5546 2.98549C15.8537 3.28416 16.0388 3.56861 16.194 3.96683C16.311 4.26728 16.4504 4.71884 16.4883 5.55085C16.5293 6.45041 16.5382 6.72064 16.5382 8.998C16.5382 11.2754 16.5293 11.5456 16.4883 12.4451C16.4502 13.2772 16.311 13.7287 16.194 14.0292C16.0392 14.4274 15.8537 14.7109 15.5546 15.0094C15.2555 15.3081 14.9715 15.493 14.5726 15.6477C14.2717 15.765 13.8192 15.9037 12.986 15.9417C12.0852 15.9826 11.8146 15.9915 9.533 15.9915C7.25124 15.9915 6.98082 15.9826 6.08 15.9417C5.24684 15.9033 4.79465 15.7643 4.49325 15.6475C4.09447 15.4928 3.80963 15.3079 3.51055 15.0093C3.21146 14.7106 3.02632 14.4269 2.87108 14.0284C2.75411 13.728 2.61472 13.2764 2.5768 12.4444C2.53585 11.5449 2.52766 11.2746 2.52766 8.99586C2.52766 6.71708 2.53585 6.44828 2.5768 5.54872C2.6149 4.71671 2.75411 4.26515 2.87108 3.96434C3.02596 3.56612 3.21146 3.28167 3.51055 2.983C3.80963 2.68433 4.09447 2.49944 4.49325 2.34441C4.79447 2.22708 5.24684 2.08841 6.08 2.05019C6.8683 2.01463 7.1738 2.00397 8.76642 2.00219V2.00432ZM14.0944 3.42123C13.5283 3.42123 13.069 3.87937 13.069 4.44488C13.069 5.01022 13.5283 5.4689 14.0944 5.4689C14.6605 5.4689 15.1198 5.01022 15.1198 4.44488C15.1198 3.87955 14.6605 3.42123 14.0944 3.42123ZM9.53305 4.61768C7.10958 4.61768 5.1447 6.57984 5.1447 8.99995C5.1447 11.4201 7.10958 13.3813 9.53305 13.3813C11.9565 13.3813 13.9207 11.4201 13.9207 8.99995C13.9207 6.57984 11.9565 4.61768 9.53305 4.61768ZM9.53302 6.15548C11.1061 6.15548 12.3814 7.42891 12.3814 8.99995C12.3814 10.5708 11.1061 11.8444 9.53302 11.8444C7.9598 11.8444 6.6846 10.5708 6.6846 8.99995C6.6846 7.42891 7.9598 6.15548 9.53302 6.15548Z" fill="#1B1C31"/>
</svg>
