<svg width="29" height="29" viewBox="0 0 29 29" fill="none" xmlns="http://www.w3.org/2000/svg">
<rect width="29" height="29" rx="2" fill="#DBDBDB"/>
<path d="M3.08884 10.7862C3.08838 10.7994 3.08838 10.8152 3.08838 10.8466V10.9638C3.08838 10.9953 3.08838 11.011 3.08884 11.0242C3.10365 11.4186 3.43879 11.7351 3.85645 11.7492C3.87058 11.7497 3.88723 11.7497 3.92074 11.7497C3.95402 11.7497 3.97067 11.7497 3.98457 11.7492C4.40246 11.7351 4.73782 11.4186 4.75241 11.0242C4.7531 11.011 4.7531 10.9953 4.7531 10.9638V10.8466C4.7531 10.8152 4.7531 10.7994 4.75241 10.7862C4.73782 10.3918 4.40246 10.0752 3.9848 10.0612C3.97067 10.0608 3.95402 10.0608 3.92074 10.0608C3.88723 10.0608 3.87058 10.0608 3.85645 10.0612C3.43879 10.0752 3.10365 10.3918 3.08884 10.7862ZM13.9934 13.5831V16.8161C13.9934 17.3783 14.2104 17.6316 14.8958 17.6316C15.1828 17.6316 15.465 17.5518 15.634 17.4916V18.7945C15.3467 18.891 14.9076 18.9393 14.5483 18.9393C13.1079 18.9393 12.4251 18.2177 12.4251 16.9704V10.4468H13.9934V12.5216H15.634V13.5833H13.9934V13.5831Z" fill="white"/>
<path fill-rule="evenodd" clip-rule="evenodd" d="M16.1647 15.5482C16.1647 13.6331 17.3723 12.3286 19.3049 12.3286C21.3697 12.3286 22.3931 13.8351 22.2851 16.0196H17.7758C17.8574 17.1404 18.3834 17.7087 19.3149 17.7087C20.1024 17.7087 20.5203 17.3289 20.7004 16.7918H22.2324C21.9346 18.1086 20.8919 18.9392 19.3051 18.9392C17.3458 18.9392 16.1647 17.647 16.1647 15.7073V15.5479V15.5482ZM19.293 13.5836C18.4335 13.5836 17.9199 14.0437 17.7758 14.9584L20.7099 14.9342C20.6256 14.0809 20.1646 13.5836 19.293 13.5836Z" fill="white"/>
<path d="M9.27677 12.3286C8.26818 12.3286 7.64579 12.9246 7.33437 13.5107L7.2621 12.5215H5.76654V18.7461H7.3346V15.2477C7.3346 14.2152 7.88221 13.5832 8.70978 13.5832C9.53735 13.5832 9.84376 14.1308 9.84376 15.0788V18.7461H11.4118V14.7411C11.4143 13.3516 10.8111 12.3286 9.27677 12.3286ZM24.7296 13.5107C25.1276 12.7315 25.9406 12.3286 26.5511 12.3286C26.6597 12.3286 26.8309 12.343 26.925 12.3646V13.5832C26.7735 13.5678 26.6214 13.5597 26.4691 13.559C25.3545 13.559 24.7296 14.2297 24.7296 15.3685V18.7461H23.1611V12.5215H24.681L24.7293 13.5107H24.7296ZM2.07507 12.5215V13.5818H3.1361V18.7461H4.70484V12.5215H2.07507Z" fill="white"/>
</svg>
