<svg width="28" height="29" viewBox="0 0 28 29" fill="none" xmlns="http://www.w3.org/2000/svg">
<path fill-rule="evenodd" clip-rule="evenodd" d="M4.67371 -0.00482368H23.3567L23.599 0.000295639L23.8348 0.0207691L24.0698 0.0514774L24.2998 0.0932808L24.5256 0.147875L24.7482 0.212709L24.965 0.288633L25.1769 0.375647L25.3838 0.472044L25.585 0.578678L25.7812 0.696404L25.9708 0.821804L26.153 0.955734L26.3294 1.10076L26.5 1.25346L26.6608 1.41298L26.8166 1.58104L26.9625 1.75506L27.1027 1.93848L27.2321 2.12871L27.3525 2.32492L27.4646 2.52795L27.5684 2.7361L27.6632 2.95022L27.7449 3.16946L27.8191 3.39382L27.8817 3.62415L27.9345 3.85789L27.9749 4.0959L28.0045 4.33646L28.0235 4.583L28.0293 4.8321V24.1687L28.0235 24.417L28.0045 24.6618L27.9749 24.9047L27.9345 25.1421L27.8817 25.376L27.8191 25.6062L27.7449 25.8292L27.6632 26.0485L27.5684 26.2643L27.4646 26.471L27.3525 26.674L27.2321 26.8698L27.1027 27.0601L26.9625 27.2414L26.8166 27.4172L26.6608 27.5858L26.5 27.7453L26.3294 27.8976L26.153 28.0408L25.9708 28.1749L25.7812 28.3L25.585 28.416L25.3838 28.523L25.1769 28.6209L24.965 28.7061L24.7482 28.7822L24.5256 28.8475L24.2998 28.9019L24.0698 28.9436L23.8348 28.9744L23.599 28.9943L23.3567 28.9998H4.67371L4.43192 28.9943L4.19549 28.9744L3.9607 28.9436L3.7312 28.9019L3.5035 28.8475L3.28273 28.7822L3.06551 28.7061L2.85356 28.6209L2.64507 28.523L2.44368 28.416L2.2492 28.3L2.05828 28.1749L1.87609 28.0408L1.6991 27.8976L1.52919 27.7453L1.36802 27.5858L1.21213 27.4172L1.06671 27.2414L0.928298 27.0601L0.796974 26.8698L0.676079 26.674L0.563963 26.471L0.460602 26.2643L0.366004 26.0485L0.283673 25.8292L0.210097 25.6062L0.147032 25.376L0.0944774 25.1421L0.0541841 24.9047L0.0244033 24.6618L0.00513337 24.417L-0.00012207 24.1687V4.8321L0.00513337 4.583L0.0244033 4.33646L0.0541841 4.0959L0.0944774 3.85789L0.147032 3.62415L0.210097 3.39382L0.283673 3.16946L0.366004 2.95022L0.460602 2.7361L0.563963 2.52795L0.676079 2.32492L0.796974 2.12871L0.928298 1.93848L1.06671 1.75506L1.21213 1.58104L1.36802 1.41298L1.52919 1.25346L1.6991 1.10076L1.87609 0.955734L2.05828 0.821804L2.2492 0.696404L2.44368 0.578678L2.64507 0.472044L2.85356 0.375647L3.06551 0.288633L3.28273 0.212709L3.5035 0.147875L3.7312 0.0932808L3.9607 0.0514774L4.19549 0.0207691L4.43192 0.000295639L4.67371 -0.00482368Z" fill="#DBDBDB"/>
<path fill-rule="evenodd" clip-rule="evenodd" d="M2.33508 24.165H4.51434V14.4955H2.33508V24.165Z" fill="white"/>
<path fill-rule="evenodd" clip-rule="evenodd" d="M14.2792 16.7069H14.1547L14.0319 16.7112L13.9107 16.7163L13.7936 16.724L13.6782 16.7308L13.5645 16.7419L13.4523 16.7547L13.3419 16.7675L13.2347 16.7837L13.13 16.7999L13.0261 16.8178L12.9247 16.8374L12.8266 16.8579L12.7302 16.8792L12.6354 16.9031L12.5431 16.927L12.4532 16.9518L12.3658 16.9773L12.2817 17.0046L12.1993 17.0319L12.1185 17.0592L12.0418 17.0882L11.9668 17.1173L11.8943 17.148L11.8242 17.177L11.7566 17.2077L11.6915 17.2384L11.628 17.2691L11.5686 17.2998L11.5109 17.3305L11.4565 17.3621L11.4038 17.3928L11.8143 18.8174L11.8613 18.7884L11.9108 18.7594L11.961 18.7304L12.0138 18.7031L12.0682 18.6758L12.1243 18.6485L12.182 18.6212L12.2413 18.5965L12.3032 18.5709L12.3658 18.5453L12.4293 18.5197L12.4936 18.4967L12.5587 18.4745L12.6255 18.4515L12.6931 18.4293L12.7615 18.4097L12.8316 18.3892L12.9017 18.3713L12.9734 18.3534L13.0435 18.3371L13.116 18.3209L13.1894 18.3064L13.2611 18.2936L13.3345 18.2808L13.4062 18.2698L13.4804 18.2612L13.5537 18.2518L13.6255 18.2467L13.6988 18.2407L13.7706 18.2356L13.8448 18.2339H13.9165L14.0319 18.2356L14.144 18.2407L14.2487 18.2501L14.3468 18.2612L14.4416 18.2774L14.5315 18.2953L14.6155 18.3167L14.6939 18.3406L14.7697 18.3679L14.8398 18.3969L14.9041 18.4276L14.9634 18.46L15.0195 18.495L15.0723 18.5308L15.1217 18.5692L15.1654 18.6067L15.2058 18.6468L15.2437 18.6886L15.2775 18.7287L15.3072 18.7705L15.3336 18.814L15.3583 18.8558L15.3789 18.8968L15.3979 18.9386L15.4144 18.9804L15.4259 19.0205L15.4366 19.0606L15.4457 19.0981L15.4523 19.1365L15.4564 19.1723L15.4597 19.2073V19.2397V19.3173L15.1984 19.3199L14.9428 19.3267L14.6939 19.3395L14.4523 19.3574L14.2174 19.3813L13.9898 19.412L13.7673 19.4461L13.5537 19.4879L13.3468 19.5332L13.149 19.586L12.9561 19.6441L12.7722 19.7072L12.5975 19.7763L12.4293 19.8505L12.2677 19.9307L12.1152 20.016L11.9718 20.1064L11.8366 20.202L11.7088 20.3035L11.5917 20.4127L11.4812 20.525L11.3815 20.6428L11.29 20.7679L11.2059 20.8966L11.1342 21.0307L11.0699 21.1722L11.0155 21.3172L10.9718 21.4695L10.9363 21.6253L10.91 21.7867L10.8959 21.9553L10.891 22.1275L10.8926 22.2308L10.8992 22.3341L10.9116 22.4374L10.9297 22.539L10.952 22.6405L10.9784 22.742L11.0097 22.8417L11.0468 22.9396L11.0872 23.0357L11.1342 23.13L11.1853 23.2224L11.2397 23.313L11.2991 23.4018L11.3642 23.4871L11.4343 23.5705L11.5076 23.6503L11.5859 23.7263L11.6684 23.7989L11.7566 23.8678L11.8473 23.933L11.9437 23.9946L12.0451 24.0526L12.1506 24.1052L12.2611 24.1524L12.3749 24.1959L12.4919 24.2339L12.6164 24.2666L12.7426 24.2937L12.8736 24.3155L13.0088 24.3319L13.149 24.3409L13.2924 24.3445L13.3798 24.3427L13.4664 24.3391L13.5504 24.3354L13.6345 24.3282L13.7161 24.3191L13.7986 24.3082L13.8794 24.2956L13.9602 24.2811L14.0385 24.2629L14.116 24.2448L14.1926 24.2249L14.2685 24.2031L14.3419 24.1796L14.4152 24.1542L14.4869 24.1252L14.557 24.0962L14.6254 24.0654L14.6939 24.0327L14.7606 24.0001L14.8258 23.9638L14.8884 23.9258L14.9494 23.8877L15.0113 23.846L15.069 23.8043L15.1267 23.7608L15.1827 23.7155L15.2371 23.6683L15.2882 23.6194L15.3385 23.5705L15.388 23.5197L15.435 23.4671L15.4803 23.4128H15.5051L15.7433 24.1651H17.5165V19.8795L17.5141 19.7166L17.5058 19.557L17.4935 19.3992L17.4762 19.2431L17.4531 19.0896L17.4234 18.9386L17.3904 18.7918L17.35 18.6485L17.3022 18.5078L17.2519 18.3713L17.1917 18.239L17.1274 18.1102L17.0557 17.9857L16.9782 17.8654L16.8925 17.7494L16.8018 17.6393L16.7037 17.5336L16.5965 17.4346L16.4828 17.3399L16.3616 17.2512L16.2338 17.1676L16.097 17.0917L15.9535 17.0209L15.801 16.9577L15.6419 16.8997L15.4721 16.8502L15.2948 16.8067L15.1094 16.7709L14.9148 16.7436L14.7112 16.724L14.4993 16.7112L14.2792 16.7069ZM15.5224 21.4912V21.5347L15.5207 21.58L15.5174 21.6253L15.5141 21.6725L15.5084 21.7178L15.5034 21.765L15.496 21.8103L15.4861 21.8556L15.482 21.8719L15.4754 21.8955L15.4704 21.9172L15.4647 21.9317L15.4581 21.9498L15.4506 21.968L15.4317 22.0133L15.4103 22.0568L15.388 22.1003L15.3633 22.1438L15.3369 22.1855L15.3089 22.229L15.2792 22.2707L15.2478 22.3106L15.214 22.3504L15.1811 22.3903L15.144 22.4284L15.1061 22.4664L15.0673 22.5027L15.0269 22.5372L14.9832 22.5716L14.9395 22.6042L14.8934 22.6351L14.848 22.6659L14.7994 22.6931L14.7499 22.7202L14.6996 22.7457L14.6469 22.7674L14.5941 22.7892L14.5381 22.8091L14.482 22.8254L14.4259 22.8417L14.3666 22.8544L14.3072 22.8653L14.247 22.8744L14.1844 22.8798L14.1209 22.8852H14.0583H14.0022L13.9478 22.8816L13.895 22.878L13.8423 22.8707L13.792 22.8617L13.7425 22.8526L13.6939 22.8399L13.6461 22.8254L13.6024 22.8109L13.557 22.7927L13.515 22.7729L13.4746 22.7511L13.4342 22.7294L13.3979 22.7039L13.3608 22.6767L13.3279 22.6496L13.2941 22.6187L13.2644 22.5861L13.2347 22.5535L13.2083 22.5172L13.1836 22.4792L13.1597 22.4411L13.1383 22.3994L13.1193 22.3577L13.1036 22.3142L13.088 22.2671L13.0756 22.2199L13.0649 22.171L13.0558 22.1184L13.0509 22.0658L13.0476 22.0115L13.0459 21.9553L13.0476 21.8918L13.0525 21.832L13.0616 21.7722L13.0715 21.7142L13.0855 21.6598L13.1036 21.6054L13.1242 21.5547L13.1473 21.5039L13.1737 21.455L13.2017 21.4097L13.2331 21.3643L13.2677 21.3208L13.3048 21.2791L13.3452 21.241L13.3872 21.203L13.4326 21.1667L13.4804 21.1304L13.529 21.0979L13.5818 21.067L13.6362 21.0362L13.6922 21.0072L13.7516 20.98L13.811 20.9546L13.8744 20.9311L13.9404 20.9075L14.0072 20.8876L14.0756 20.8676L14.1473 20.8477L14.219 20.8314L14.2949 20.8151L14.3699 20.8006L14.449 20.7879L14.5224 20.7769L14.5991 20.7661L14.6766 20.7571L14.7573 20.7479L14.8373 20.7426L14.9214 20.7353L15.0055 20.7316L15.092 20.7281L15.144 20.7262L15.1967 20.7244L15.2511 20.7226H15.3039H15.3583H15.4119H15.4663H15.5224V21.4912Z" fill="white"/>
<path fill-rule="evenodd" clip-rule="evenodd" d="M23.5354 16.9192V21.1666V21.23L23.5321 21.2916L23.5264 21.3515L23.5181 21.4095L23.5091 21.4675L23.4967 21.5219L23.481 21.5763L23.4621 21.627L23.4464 21.6687L23.4266 21.7104L23.406 21.7521L23.3846 21.7938L23.3623 21.8337L23.3376 21.8754L23.3112 21.9171L23.2832 21.9569L23.2535 21.9969L23.2238 22.0367L23.19 22.0766L23.1571 22.1147L23.1224 22.1509L23.0853 22.1872L23.0466 22.2216L23.0062 22.256L22.9641 22.2887L22.9221 22.3213L22.8768 22.3503L22.8314 22.3793L22.782 22.4047L22.7333 22.43L22.6822 22.4537L22.6295 22.4735L22.5759 22.4935L22.5198 22.5098L22.4613 22.5243L22.4019 22.5352L22.3426 22.5461L22.2791 22.5515L22.2164 22.557H22.1497L22.0689 22.5552L21.9906 22.5497L21.9131 22.5407L21.8397 22.5262L21.7696 22.5098L21.7012 22.4881L21.6369 22.4627L21.5751 22.4337L21.5157 22.4029L21.4597 22.3667L21.4052 22.3267L21.3541 22.2832L21.3071 22.2379L21.2602 22.1872L21.2181 22.1346L21.1777 22.0784L21.139 22.0186L21.1043 21.9551L21.0722 21.8881L21.0409 21.8192L21.0145 21.7466L20.9881 21.6706L20.9658 21.5908L20.9461 21.5091L20.9288 21.424L20.9131 21.337L20.9007 21.2463L20.89 21.1521L20.8818 21.056L20.876 20.9563L20.8727 20.8548L20.871 20.7497V16.9158H18.7441V21.1521V21.259L18.7474 21.3623L18.7516 21.4621L18.7565 21.5618L18.7639 21.6596L18.7722 21.7557L18.7829 21.8482L18.7936 21.9406L18.8076 22.0294L18.8216 22.1165L18.8373 22.2017L18.8563 22.285L18.876 22.3667L18.8967 22.4464L18.9181 22.5243L18.942 22.5987L18.9667 22.673L18.9948 22.7455L19.0211 22.8162L19.0508 22.8851L19.0805 22.9521L19.1102 23.0174L19.144 23.0809L19.1769 23.1443L19.2099 23.2041L19.2454 23.2639L19.2825 23.3219L19.3204 23.3764L19.3591 23.4307L19.3995 23.4833L19.4399 23.5341L19.482 23.583L19.5257 23.6319L19.571 23.6772L19.6163 23.7226L19.6625 23.7642L19.7111 23.806L19.759 23.8459L19.8092 23.8839L19.8604 23.9202L19.9131 23.9547L19.965 23.9872L20.0195 24.018L20.0739 24.0489L20.1299 24.076L20.1876 24.1033L20.2453 24.1268L20.3055 24.1504L20.3665 24.1722L20.4259 24.1921L20.4894 24.212L20.5504 24.2283L20.6155 24.2447L20.6781 24.2592L20.7433 24.2737L20.81 24.2845L20.876 24.2955L20.9428 24.3045L21.0112 24.3117L21.0796 24.319L21.1497 24.3245L21.2198 24.3263L21.2915 24.3298H21.3632H21.4267L21.4877 24.328L21.547 24.3263L21.6064 24.3226L21.6666 24.3172L21.7243 24.3117L21.782 24.3063L21.838 24.2972L21.8925 24.29L21.9469 24.2791L22.0013 24.27L22.0532 24.2573L22.1043 24.2465L22.1554 24.232L22.2057 24.2175L22.2552 24.203L22.3492 24.1703L22.4423 24.1359L22.5297 24.0997L22.6154 24.0634L22.6979 24.0235L22.777 23.9837L22.852 23.9402L22.9238 23.8966L22.9922 23.8513L23.059 23.806L23.1224 23.7589L23.1834 23.7117L23.2411 23.6627L23.2956 23.612L23.3467 23.5612L23.3953 23.5087L23.4423 23.4579L23.4868 23.4072L23.5264 23.3582L23.5651 23.3111L23.6022 23.2658L23.6352 23.2204L23.6649 23.1788L23.6929 23.1353L23.9666 24.1649H25.6937V16.9192H23.5354Z" fill="white"/>
<path fill-rule="evenodd" clip-rule="evenodd" d="M6.55861 14.4958V16.9159H5.56531V18.5675H6.55861V21.5148L6.56034 21.6054L6.56207 21.6942L6.56388 21.783L6.56734 21.8683L6.57262 21.9535L6.57963 22.0368L6.58663 22.1184L6.59537 22.2L6.60411 22.2779L6.61466 22.3559L6.62695 22.4321L6.64096 22.5064L6.65498 22.5789L6.67072 22.6514L6.68647 22.7202L6.70403 22.7892L6.72323 22.8562L6.74426 22.9215L6.76528 22.9849L6.78811 23.0465L6.8126 23.1082L6.83716 23.1662L6.86338 23.2242L6.89141 23.2786L6.91944 23.333L6.94928 23.3855L6.98077 23.4363L7.01408 23.4871L7.04738 23.5342L7.08242 23.5795L7.11918 23.6248L7.15595 23.6665L7.19099 23.7028L7.22602 23.7391L7.26279 23.7735L7.29964 23.8079L7.33987 23.8406L7.38018 23.8732L7.42396 23.9058L7.46782 23.9366L7.51159 23.9674L7.55891 23.9964L7.60615 24.0236L7.6552 24.0526L7.70606 24.0781L7.75684 24.1034L7.81117 24.1288L7.86368 24.1506L7.91974 24.1741L7.9758 24.1941L8.03359 24.214L8.09146 24.2321L8.15098 24.2502L8.21231 24.2647L8.27357 24.2792L8.33704 24.2919L8.3997 24.3046L8.46482 24.3155L8.52912 24.3227L8.5959 24.33L8.66267 24.3372L8.7311 24.3409L8.79952 24.3427L8.86959 24.3445L8.98501 24.3427L9.09135 24.3391L9.19193 24.3336L9.28261 24.3264L9.36835 24.3174L9.44749 24.3064L9.5225 24.2937L9.59093 24.2792L9.6577 24.2647L9.71871 24.2484L9.77641 24.2303L9.83412 24.2122L9.94294 24.1723L10.0501 24.1306V22.4466L10.0221 22.4574L9.98498 22.4683L9.94129 22.4792L9.88688 22.4882L9.82588 22.4973L9.75745 22.5027L9.68408 22.5082L9.60494 22.5099L9.53487 22.5082L9.46974 22.5046L9.40709 22.4973L9.34774 22.4864L9.29168 22.4737L9.23892 22.4592L9.18781 22.4411L9.14082 22.4194L9.09712 22.3958L9.05508 22.3704L9.01469 22.3396L8.97924 22.3088L8.94461 22.2743L8.91329 22.2381L8.88361 22.1982L8.85723 22.1546L8.8325 22.1111L8.80941 22.0623L8.7888 22.0133L8.76902 21.9607L8.75336 21.9045L8.73769 21.8483L8.72533 21.7867L8.71296 21.725L8.70472 21.6598L8.69565 21.5909L8.68905 21.522L8.68328 21.4495L8.67999 21.3734L8.67669 21.2972L8.67504 21.2175V21.1359V18.5675H10.027V16.9159H8.67504V14.4958H6.55861Z" fill="white"/>
<path fill-rule="evenodd" clip-rule="evenodd" d="M22.7317 14.4941L21.4176 16.4485H22.9378L24.7901 14.4941H22.7317Z" fill="white"/>
</svg>
