<svg width="15" height="14" viewBox="0 0 15 14" fill="none" xmlns="http://www.w3.org/2000/svg">
<path d="M2.40833 0.25C1.57843 0.25 0.90625 0.92125 0.90625 1.75V12.25C0.90625 13.0788 1.57843 13.75 2.40833 13.75H12.9229C13.7528 13.75 14.425 13.0788 14.425 12.25V1.75C14.425 0.92125 13.7528 0.25 12.9229 0.25H2.40833ZM2.40833 1.75H12.9229V12.25H2.40833V1.75ZM4.4957 2.7373C3.85206 2.7373 3.46595 3.12368 3.46595 3.63818C3.46595 4.15268 3.8521 4.5376 4.43116 4.5376C5.0748 4.5376 5.4609 4.15268 5.4609 3.63818C5.4609 3.12368 5.07475 2.7373 4.4957 2.7373ZM3.51729 5.5V10.75H5.4125V5.5H3.51729ZM6.97619 5.5V10.75H8.87139V7.88037C8.87139 7.02612 9.48172 6.90332 9.66497 6.90332C9.84823 6.90332 10.3383 7.08687 10.3383 7.88037V10.75H12.1719V7.88037C12.1719 6.23262 11.4386 5.5 10.5216 5.5C9.60461 5.5 9.11548 5.80492 8.87139 6.23242V5.5H6.97619Z" fill="#1B1C31"/>
</svg>
