<svg width="128" height="27" viewBox="0 0 128 27" fill="none" xmlns="http://www.w3.org/2000/svg">
<path d="M28.3291 21.6089V2.44734H35.8953C37.1831 2.40719 38.4603 2.69131 39.6096 3.2736C40.6037 3.79119 41.4245 4.58863 41.9704 5.56746C42.5226 6.60418 42.8003 7.76504 42.777 8.93944C42.8009 10.1146 42.5174 11.2755 41.9547 12.3074C41.4077 13.2806 40.5867 14.0714 39.5939 14.5817C38.4225 15.152 37.1309 15.4314 35.8285 15.3961H30.9968V12.1579H35.1635C35.8299 12.1854 36.4929 12.0504 37.0954 11.7645C37.5822 11.5135 37.9805 11.1194 38.2365 10.6352C38.485 10.1135 38.614 9.5429 38.614 8.96499C38.614 8.38709 38.485 7.81648 38.2365 7.29475C37.9802 6.81192 37.5782 6.42228 37.0875 6.18128C36.4731 5.89336 35.7981 5.75836 35.1202 5.78782H32.366V21.6325L28.3291 21.6089Z" fill="#1B1C31"/>
<path d="M49.0172 21.8803C48.175 21.8957 47.3391 21.7307 46.566 21.3963C45.8719 21.0947 45.2812 20.5969 44.8662 19.9641C44.4918 19.2998 44.2801 18.5562 44.2486 17.7943C44.2172 17.0324 44.3668 16.2739 44.6852 15.581C44.9624 15.0531 45.3684 14.6038 45.8656 14.2746C46.3955 13.9333 46.9776 13.6808 47.5889 13.5271C48.2567 13.3551 48.9368 13.2353 49.6232 13.169C50.4612 13.0825 51.1341 12.9999 51.6456 12.9212C52.0368 12.8822 52.4159 12.763 52.759 12.571C52.8715 12.4952 52.9626 12.3916 53.0232 12.2703C53.0839 12.1489 53.1121 12.014 53.1053 11.8785V11.8194C53.1204 11.5637 53.0785 11.3079 52.9826 11.0704C52.8866 10.8329 52.739 10.6197 52.5505 10.4463C52.1029 10.0973 51.5432 9.92383 50.9767 9.95839C50.369 9.92717 49.7673 10.0928 49.2612 10.4306C48.8577 10.7202 48.5617 11.1352 48.4192 11.611L44.7364 11.3119C44.9027 10.4755 45.2776 9.69454 45.8263 9.04164C46.4067 8.38384 47.1386 7.87741 47.9588 7.56616C48.9247 7.20015 49.9518 7.02249 50.9845 7.04283C51.7659 7.03879 52.5446 7.13402 53.302 7.32616C54.0039 7.49779 54.6699 7.79216 55.2693 8.19569C55.8353 8.58326 56.2996 9.1015 56.6228 9.70657C56.9694 10.3883 57.1411 11.1454 57.1225 11.9099V21.6048H53.3296V19.6061H53.2194C52.9876 20.0549 52.6724 20.4554 52.2908 20.7864C51.8818 21.1363 51.4088 21.4036 50.898 21.5734C50.2929 21.7813 49.657 21.885 49.0172 21.8803ZM50.1583 19.126C50.7042 19.1406 51.2451 19.0189 51.7321 18.7719C52.1624 18.5548 52.5276 18.2276 52.7905 17.8237C53.0511 17.4191 53.1878 16.9474 53.184 16.4662V14.9317C53.0298 15.027 52.8629 15.0998 52.6882 15.1482C52.4503 15.2214 52.2086 15.2818 51.9642 15.3291C51.6967 15.3842 51.4252 15.4275 51.1773 15.4668L50.4494 15.577C50.0278 15.6324 49.6152 15.7421 49.2218 15.9036C48.8946 16.0253 48.6064 16.2334 48.3877 16.5056C48.1847 16.7776 48.0806 17.1107 48.0926 17.4499C48.0788 17.6908 48.1264 17.9313 48.231 18.1488C48.3356 18.3663 48.4938 18.5536 48.6907 18.6932C49.1393 18.9915 49.6713 19.1389 50.2094 19.1142L50.1583 19.126Z" fill="#1B1C31"/>
<path d="M62.1669 26.9994C61.691 26.9995 61.2159 26.96 60.7466 26.8813C60.3738 26.8219 60.0085 26.723 59.6567 26.5862L60.5577 23.6117C60.9678 23.7453 61.3939 23.8234 61.8246 23.8438C62.17 23.8656 62.513 23.773 62.8004 23.5802C63.1185 23.3399 63.3548 23.0074 63.4772 22.628L63.7133 22.0182L58.5668 7.23975H62.7571L65.7356 17.7963H65.8851L68.8833 7.23975H73.1012L67.4984 23.1474C67.2509 23.8802 66.8825 24.5664 66.4085 25.1777C65.9412 25.7566 65.3422 26.2153 64.6615 26.5154C63.8724 26.8477 63.023 27.0125 62.1669 26.9994Z" fill="#1B1C31"/>
<path d="M74.9504 2.44727H79.9473L85.2276 15.3213H85.4519L90.7282 2.44727H95.7251V21.6088H91.7905V9.1361H91.6331L86.6716 21.5144H83.996L79.0384 9.08889H78.8771V21.6088H74.9425L74.9504 2.44727Z" fill="#1B1C31"/>
<path d="M105.53 21.8881C104.203 21.924 102.889 21.6135 101.717 20.9871C100.664 20.3931 99.8095 19.5005 99.2623 18.4217C98.6947 17.1953 98.4008 15.8601 98.4008 14.5088C98.4008 13.1574 98.6947 11.8222 99.2623 10.5958C99.8082 9.51142 100.653 8.60616 101.698 7.98713C102.816 7.34465 104.088 7.0195 105.377 7.04675C106.281 7.04022 107.179 7.19479 108.029 7.50318C108.837 7.79494 109.571 8.25953 110.181 8.86454C110.822 9.50947 111.313 10.2871 111.621 11.1427C111.982 12.1724 112.157 13.2584 112.136 14.3494V15.4432H99.998V12.9684H108.383C108.386 12.4352 108.251 11.9104 107.989 11.4457C107.746 11.0094 107.388 10.6476 106.954 10.399C106.488 10.136 105.96 10.0003 105.424 10.0056C104.861 9.99664 104.306 10.1408 103.819 10.4227C103.364 10.692 102.988 11.076 102.729 11.5362C102.468 12.011 102.332 12.5446 102.335 13.0864V15.4472C102.317 16.0849 102.452 16.7176 102.729 17.2925C102.984 17.7887 103.379 18.1991 103.866 18.4729C104.395 18.7637 104.993 18.909 105.597 18.8938C106.011 18.8978 106.423 18.8354 106.817 18.7089C107.169 18.5936 107.492 18.4014 107.761 18.1463C108.024 17.8886 108.225 17.5753 108.351 17.2295L112.038 17.4774C111.861 18.3352 111.467 19.1332 110.893 19.7949C110.279 20.4719 109.517 20.9972 108.666 21.3294C107.665 21.7118 106.601 21.9014 105.53 21.8881Z" fill="#1B1C31"/>
<path d="M121.276 21.8882C119.949 21.9232 118.635 21.6127 117.464 20.9872C116.41 20.3932 115.556 19.5006 115.009 18.4218C114.441 17.1955 114.147 15.8603 114.147 14.5089C114.147 13.1575 114.441 11.8222 115.009 10.5959C115.553 9.5127 116.395 8.6076 117.436 7.98722C118.555 7.3443 119.829 7.02041 121.119 7.05078C122.023 7.0423 122.922 7.19693 123.771 7.50721C124.578 7.80123 125.312 8.26553 125.923 8.86857C126.563 9.51324 127.052 10.2912 127.355 11.1467C127.721 12.1741 127.895 13.2594 127.871 14.3495V15.4433H115.737V12.9685H124.121C124.127 12.4351 123.991 11.9097 123.728 11.4458C123.484 11.0095 123.126 10.6477 122.693 10.3991C122.207 10.1417 121.664 10.0104 121.114 10.0173C120.564 10.0242 120.025 10.169 119.545 10.4385C119.089 10.7066 118.711 11.0908 118.451 11.552C118.191 12.0268 118.055 12.5604 118.058 13.1022V15.463C118.042 16.1005 118.177 16.7328 118.451 17.3083C118.706 17.8027 119.098 18.2127 119.581 18.4887C120.11 18.7805 120.708 18.9258 121.312 18.9097C121.724 18.9134 122.135 18.8509 122.528 18.7248C122.88 18.6071 123.202 18.4137 123.472 18.1582C123.739 17.904 123.944 17.5917 124.07 17.2454L127.757 17.4932C127.584 18.3523 127.189 19.1512 126.612 19.8107C126.001 20.4896 125.238 21.0141 124.385 21.3413C123.393 21.7186 122.338 21.9042 121.276 21.8882Z" fill="#1B1C31"/>
<path d="M20.0862 2.46696V7.58195H13.842C13.4132 7.58497 12.9926 7.46484 12.6301 7.23575L9.70673 5.40615C9.46618 5.25423 9.19925 5.14877 8.91981 5.0953C8.85868 5.08204 8.80257 5.05171 8.758 5.00784C8.71342 4.96396 8.68221 4.90833 8.66799 4.84742C8.40459 3.63902 7.73797 2.55616 6.77768 1.77677C5.81738 0.997381 4.62053 0.567816 3.38379 0.558684V0H8.19187C8.57738 0.00180835 8.95626 0.100575 9.29358 0.287219L12.7049 2.16797C13.0425 2.3534 13.4214 2.45082 13.8066 2.45125L20.0862 2.46696Z" fill="#F19021"/>
<path d="M20.0862 9.50994V14.6446H13.842C13.4134 14.6459 12.9933 14.5259 12.6301 14.2984L9.70669 12.4727C9.3406 12.2411 8.91623 12.1183 8.48303 12.1186H3.36804V11.4733C4.5414 11.4636 5.68029 11.0755 6.61534 10.3666C7.55039 9.65765 8.23163 8.66586 8.55777 7.5387C8.58244 7.45843 8.63709 7.39078 8.71036 7.34975C8.78363 7.30872 8.86989 7.29748 8.95123 7.31839L9.01026 7.34197L12.4255 9.2306C12.7634 9.41482 13.1423 9.51088 13.5272 9.50994H20.0862Z" fill="#FE471B"/>
<path d="M9.7067 19.4292L12.6261 21.2588C12.9893 21.4868 13.4092 21.6082 13.838 21.6089H20.0862V16.4939H13.539C13.1538 16.4935 12.7749 16.3961 12.4373 16.2107L9.02597 14.3299C8.68835 14.1445 8.3095 14.0471 7.92431 14.0466H0V19.1026H8.46729C8.90316 19.0906 9.33333 19.204 9.7067 19.4292Z" fill="#E85A27"/>
</svg>
