<svg width="128" height="28" viewBox="0 0 128 28" fill="none" xmlns="http://www.w3.org/2000/svg">
<path d="M28.3291 22.1089V2.94734H35.8953C37.1831 2.90719 38.4603 3.19131 39.6096 3.7736C40.6037 4.29119 41.4245 5.08863 41.9704 6.06746C42.5226 7.10418 42.8003 8.26504 42.777 9.43944C42.8009 10.6146 42.5174 11.7755 41.9547 12.8074C41.4077 13.7806 40.5867 14.5714 39.5939 15.0817C38.4225 15.652 37.1309 15.9314 35.8285 15.8961H30.9968V12.6579H35.1635C35.8299 12.6854 36.4929 12.5504 37.0954 12.2645C37.5822 12.0135 37.9805 11.6194 38.2365 11.1352C38.485 10.6135 38.614 10.0429 38.614 9.46499C38.614 8.88709 38.485 8.31648 38.2365 7.79475C37.9802 7.31192 37.5782 6.92228 37.0875 6.68128C36.4731 6.39336 35.7981 6.25836 35.1202 6.28782H32.366V22.1325L28.3291 22.1089Z" fill="white"/>
<path d="M49.0172 22.3803C48.175 22.3957 47.3391 22.2307 46.566 21.8963C45.8719 21.5947 45.2812 21.0969 44.8662 20.4641C44.4918 19.7998 44.2801 19.0562 44.2486 18.2943C44.2172 17.5324 44.3668 16.7739 44.6852 16.081C44.9624 15.5531 45.3684 15.1038 45.8656 14.7746C46.3955 14.4333 46.9776 14.1808 47.5889 14.0271C48.2567 13.8551 48.9368 13.7353 49.6232 13.669C50.4612 13.5825 51.1341 13.4999 51.6456 13.4212C52.0368 13.3822 52.4159 13.263 52.759 13.071C52.8715 12.9952 52.9626 12.8916 53.0232 12.7703C53.0839 12.6489 53.1121 12.514 53.1053 12.3785V12.3194C53.1204 12.0637 53.0785 11.8079 52.9826 11.5704C52.8866 11.3329 52.739 11.1197 52.5505 10.9463C52.1029 10.5973 51.5432 10.4238 50.9767 10.4584C50.369 10.4272 49.7673 10.5928 49.2612 10.9306C48.8577 11.2202 48.5617 11.6352 48.4192 12.111L44.7364 11.8119C44.9027 10.9755 45.2776 10.1945 45.8263 9.54164C46.4067 8.88384 47.1386 8.37741 47.9588 8.06616C48.9247 7.70015 49.9518 7.52249 50.9845 7.54283C51.7659 7.53879 52.5446 7.63402 53.302 7.82616C54.0039 7.99779 54.6699 8.29216 55.2693 8.69569C55.8353 9.08326 56.2996 9.6015 56.6228 10.2066C56.9694 10.8883 57.1411 11.6454 57.1225 12.4099V22.1048H53.3296V20.1061H53.2194C52.9876 20.5549 52.6724 20.9554 52.2908 21.2864C51.8818 21.6363 51.4088 21.9036 50.898 22.0734C50.2929 22.2813 49.657 22.385 49.0172 22.3803V22.3803ZM50.1583 19.626C50.7042 19.6406 51.2451 19.5189 51.7321 19.2719C52.1624 19.0548 52.5276 18.7276 52.7905 18.3237C53.0511 17.9191 53.1878 17.4474 53.184 16.9662V15.4317C53.0298 15.527 52.8629 15.5998 52.6882 15.6482C52.4503 15.7214 52.2086 15.7818 51.9642 15.8291C51.6967 15.8842 51.4252 15.9275 51.1773 15.9668L50.4494 16.077C50.0278 16.1324 49.6152 16.2421 49.2218 16.4036C48.8946 16.5253 48.6064 16.7334 48.3877 17.0056C48.1847 17.2776 48.0806 17.6107 48.0926 17.9499C48.0788 18.1908 48.1264 18.4313 48.231 18.6488C48.3356 18.8663 48.4938 19.0536 48.6907 19.1932C49.1393 19.4915 49.6713 19.6389 50.2094 19.6142L50.1583 19.626Z" fill="white"/>
<path d="M62.1669 27.4994C61.691 27.4995 61.2159 27.46 60.7466 27.3813C60.3738 27.3219 60.0085 27.223 59.6567 27.0862L60.5577 24.1117C60.9678 24.2453 61.3939 24.3234 61.8246 24.3438C62.17 24.3656 62.513 24.273 62.8004 24.0802C63.1185 23.8399 63.3548 23.5074 63.4772 23.128L63.7133 22.5182L58.5668 7.73975H62.7571L65.7356 18.2963H65.8851L68.8833 7.73975H73.1012L67.4984 23.6474C67.2509 24.3802 66.8825 25.0664 66.4085 25.6777C65.9412 26.2566 65.3422 26.7153 64.6615 27.0154C63.8724 27.3477 63.023 27.5125 62.1669 27.4994V27.4994Z" fill="white"/>
<path d="M74.9504 2.94727H79.9473L85.2276 15.8213H85.4519L90.7282 2.94727H95.7251V22.1088H91.7905V9.6361H91.6331L86.6716 22.0144H83.996L79.0384 9.58889H78.8771V22.1088H74.9425L74.9504 2.94727Z" fill="white"/>
<path d="M105.53 22.3881C104.203 22.424 102.889 22.1135 101.717 21.4871C100.664 20.8931 99.8095 20.0005 99.2623 18.9217C98.6947 17.6953 98.4008 16.3601 98.4008 15.0088C98.4008 13.6574 98.6947 12.3222 99.2623 11.0958C99.8082 10.0114 100.653 9.10616 101.698 8.48713C102.816 7.84465 104.088 7.5195 105.377 7.54675C106.281 7.54022 107.179 7.69479 108.029 8.00318C108.837 8.29494 109.571 8.75953 110.181 9.36454C110.822 10.0095 111.313 10.7871 111.621 11.6427C111.982 12.6724 112.157 13.7584 112.136 14.8494V15.9432H99.998V13.4684H108.383C108.386 12.9352 108.251 12.4104 107.989 11.9457C107.746 11.5094 107.388 11.1476 106.954 10.899C106.488 10.636 105.96 10.5003 105.424 10.5056C104.861 10.4966 104.306 10.6408 103.819 10.9227C103.364 11.192 102.988 11.576 102.729 12.0362C102.468 12.511 102.332 13.0446 102.335 13.5864V15.9472C102.317 16.5849 102.452 17.2176 102.729 17.7925C102.984 18.2887 103.379 18.6991 103.866 18.9729C104.395 19.2637 104.993 19.409 105.597 19.3938C106.011 19.3978 106.423 19.3354 106.817 19.2089C107.169 19.0936 107.492 18.9014 107.761 18.6463C108.024 18.3886 108.225 18.0753 108.351 17.7295L112.038 17.9774C111.861 18.8352 111.467 19.6332 110.893 20.2949C110.279 20.9719 109.517 21.4972 108.666 21.8294C107.665 22.2118 106.601 22.4014 105.53 22.3881V22.3881Z" fill="white"/>
<path d="M121.276 22.3882C119.949 22.4232 118.635 22.1127 117.464 21.4872C116.41 20.8932 115.556 20.0006 115.009 18.9218C114.441 17.6955 114.147 16.3603 114.147 15.0089C114.147 13.6575 114.441 12.3222 115.009 11.0959C115.553 10.0127 116.395 9.1076 117.436 8.48722C118.555 7.8443 119.829 7.52041 121.119 7.55078C122.023 7.5423 122.922 7.69693 123.771 8.00721C124.578 8.30123 125.312 8.76553 125.923 9.36857C126.563 10.0132 127.052 10.7912 127.355 11.6467C127.721 12.6741 127.895 13.7594 127.871 14.8495V15.9433H115.737V13.4685H124.121C124.127 12.9351 123.991 12.4097 123.728 11.9458C123.484 11.5095 123.126 11.1477 122.693 10.8991C122.207 10.6417 121.664 10.5104 121.114 10.5173C120.564 10.5242 120.025 10.669 119.545 10.9385C119.089 11.2066 118.711 11.5908 118.451 12.052C118.191 12.5268 118.055 13.0604 118.058 13.6022V15.963C118.042 16.6005 118.177 17.2328 118.451 17.8083C118.706 18.3027 119.098 18.7127 119.581 18.9887C120.11 19.2805 120.708 19.4258 121.312 19.4097C121.724 19.4134 122.135 19.3509 122.528 19.2248C122.88 19.1071 123.202 18.9137 123.472 18.6582C123.739 18.404 123.944 18.0917 124.07 17.7454L127.757 17.9932C127.584 18.8523 127.189 19.6512 126.612 20.3107C126.001 20.9896 125.238 21.5141 124.385 21.8413C123.393 22.2186 122.338 22.4042 121.276 22.3882Z" fill="white"/>
<path d="M20.0862 2.96696V8.08195H13.842C13.4132 8.08497 12.9926 7.96484 12.6301 7.73575L9.70673 5.90615C9.46618 5.75423 9.19925 5.64877 8.91981 5.5953C8.85868 5.58204 8.80257 5.55172 8.758 5.50784C8.71342 5.46396 8.68221 5.40833 8.66799 5.34742C8.4046 4.13902 7.73797 3.05616 6.77768 2.27677C5.81738 1.49738 4.62053 1.06782 3.38379 1.05868V0.5H8.19187C8.57738 0.501808 8.95626 0.600575 9.29358 0.787219L12.7049 2.66797C13.0425 2.8534 13.4214 2.95082 13.8066 2.95125L20.0862 2.96696Z" fill="#C8C8C8"/>
<path d="M20.0862 10.0099V15.1446H13.842C13.4134 15.1459 12.9933 15.0259 12.6301 14.7984L9.70669 12.9727C9.3406 12.7411 8.91623 12.6183 8.48303 12.6186H3.36804V11.9733C4.5414 11.9636 5.68029 11.5755 6.61534 10.8666C7.55039 10.1576 8.23163 9.16586 8.55777 8.0387C8.58244 7.95843 8.63709 7.89078 8.71036 7.84975C8.78363 7.80872 8.8699 7.79748 8.95123 7.81839L9.01026 7.84197L12.4255 9.7306C12.7634 9.91482 13.1423 10.0109 13.5272 10.0099H20.0862Z" fill="#E3E3E3"/>
<path d="M9.7067 19.9292L12.6261 21.7588C12.9893 21.9868 13.4092 22.1082 13.838 22.1089H20.0862V16.9939H13.539C13.1538 16.9935 12.7749 16.8961 12.4373 16.7107L9.02597 14.8299C8.68835 14.6445 8.3095 14.5471 7.92431 14.5466H0V19.6026H8.46728C8.90316 19.5906 9.33333 19.704 9.7067 19.9292V19.9292Z" fill="white"/>
</svg>
