<svg width="29" height="29" viewBox="0 0 29 29" fill="none" xmlns="http://www.w3.org/2000/svg">
<rect width="29" height="29" rx="2" fill="#DBDBDB"/>
<path d="M19.1022 13.7446C19.0543 13.0578 18.8625 12.3711 18.479 11.7759L15.2188 6.32771C14.9791 5.91567 14.7873 5.45783 14.6914 5L14.5476 5.22892C13.7325 6.55663 13.7325 8.2506 14.5476 9.57831L17.1845 13.9277C17.9995 15.2554 17.9995 16.9494 17.1845 18.2771L17.0407 18.506C16.9448 18.0482 16.753 17.5904 16.5133 17.1783L14.1161 13.1952L12.5819 10.6313C12.3422 10.2193 12.1504 9.76145 12.0545 9.30362L11.9107 9.53253C11.0957 10.8602 11.0957 12.5084 11.9107 13.8819L14.5476 18.2313C15.3626 19.559 15.3626 21.253 14.5476 22.5807L14.4038 22.8096C14.3079 22.3518 14.1161 21.894 13.8764 21.4819L10.5683 16.0337C10.1368 15.3012 9.94501 14.4771 9.94501 13.653C6.44512 14.5229 4 16.4 4 18.5518C4 21.5735 8.69847 24 14.4996 24C20.3008 24 24.9993 21.5735 24.9993 18.5518C25.0472 16.4916 22.6501 14.6145 19.1022 13.7446Z" fill="white"/>
</svg>
