<svg width="104" height="16" viewBox="0 0 104 16" fill="none" xmlns="http://www.w3.org/2000/svg">
<path d="M8.53125 4.27557C8.45549 3.60322 8.14299 3.08239 7.59375 2.71307C7.04451 2.33902 6.35322 2.15199 5.51989 2.15199C4.9233 2.15199 4.4072 2.24669 3.97159 2.43608C3.53598 2.62074 3.19744 2.87642 2.95597 3.20312C2.71922 3.52509 2.60085 3.89205 2.60085 4.30398C2.60085 4.64962 2.68134 4.94792 2.84233 5.19886C3.00805 5.44981 3.22349 5.66051 3.48864 5.83097C3.75852 5.99669 4.04735 6.13636 4.35511 6.25C4.66288 6.3589 4.95881 6.44886 5.2429 6.51989L6.66335 6.8892C7.12737 7.00284 7.60322 7.15672 8.09091 7.35085C8.5786 7.54498 9.03078 7.80066 9.44744 8.1179C9.86411 8.43513 10.2003 8.82812 10.456 9.29688C10.7164 9.76562 10.8466 10.3267 10.8466 10.9801C10.8466 11.804 10.6335 12.5355 10.2074 13.1747C9.78599 13.8139 9.17282 14.3182 8.3679 14.6875C7.56771 15.0568 6.59943 15.2415 5.46307 15.2415C4.37405 15.2415 3.43182 15.0687 2.63636 14.723C1.84091 14.3774 1.21828 13.8873 0.768466 13.2528C0.318655 12.6136 0.0700758 11.8561 0.0227273 10.9801H2.22443C2.26705 11.5057 2.4375 11.9437 2.7358 12.294C3.03883 12.6397 3.42472 12.8977 3.89347 13.0682C4.36695 13.2339 4.88542 13.3168 5.44886 13.3168C6.06913 13.3168 6.62074 13.2197 7.10369 13.0256C7.59138 12.8267 7.97491 12.5521 8.25426 12.2017C8.53362 11.8466 8.6733 11.4323 8.6733 10.9588C8.6733 10.5279 8.55019 10.1752 8.30398 9.90057C8.0625 9.62595 7.73343 9.39867 7.31676 9.21875C6.90483 9.03883 6.43845 8.88021 5.91761 8.7429L4.19886 8.27415C3.03409 7.95691 2.1108 7.49053 1.42898 6.875C0.751894 6.25947 0.413352 5.44508 0.413352 4.43182C0.413352 3.59375 0.640625 2.86222 1.09517 2.23722C1.54972 1.61222 2.16525 1.12689 2.94176 0.78125C3.71828 0.430871 4.59422 0.255681 5.5696 0.255681C6.55445 0.255681 7.4233 0.428503 8.17614 0.774148C8.93371 1.11979 9.5303 1.59564 9.96591 2.2017C10.4015 2.80303 10.6288 3.49432 10.6477 4.27557H8.53125ZM24.8228 0.454545H27.0245V10.0213C27.0245 11.0393 26.7854 11.9413 26.3072 12.7273C25.829 13.5085 25.1566 14.1241 24.2901 14.5739C23.4237 15.0189 22.408 15.2415 21.2433 15.2415C20.0832 15.2415 19.07 15.0189 18.2035 14.5739C17.337 14.1241 16.6647 13.5085 16.1864 12.7273C15.7082 11.9413 15.4691 11.0393 15.4691 10.0213V0.454545H17.6637V9.84375C17.6637 10.5019 17.8081 11.0866 18.0969 11.598C18.3905 12.1094 18.8048 12.5118 19.3398 12.8054C19.8749 13.0942 20.5094 13.2386 21.2433 13.2386C21.9819 13.2386 22.6187 13.0942 23.1538 12.8054C23.6935 12.5118 24.1055 12.1094 24.3896 11.598C24.6784 11.0866 24.8228 10.5019 24.8228 9.84375V0.454545ZM32.2152 15V0.454545H37.3999C38.5315 0.454545 39.469 0.660511 40.2124 1.07244C40.9557 1.48437 41.5121 2.04782 41.8814 2.76278C42.2507 3.47301 42.4354 4.2732 42.4354 5.16335C42.4354 6.05824 42.2483 6.86316 41.8743 7.57812C41.505 8.28835 40.9463 8.8518 40.1982 9.26847C39.4548 9.6804 38.5196 9.88636 37.3928 9.88636H33.8274V8.02557H37.1939C37.9089 8.02557 38.4889 7.90246 38.9339 7.65625C39.379 7.4053 39.7057 7.06439 39.9141 6.63352C40.1224 6.20265 40.2266 5.71259 40.2266 5.16335C40.2266 4.61411 40.1224 4.12642 39.9141 3.70028C39.7057 3.27415 39.3767 2.94034 38.9268 2.69886C38.4818 2.45739 37.8946 2.33665 37.1655 2.33665H34.4098V15H32.2152ZM59.6431 7.72727C59.6431 9.2803 59.359 10.6155 58.7908 11.733C58.2227 12.8456 57.4438 13.7027 56.4542 14.304C55.4693 14.9006 54.3496 15.1989 53.0948 15.1989C51.8353 15.1989 50.7108 14.9006 49.7212 14.304C48.7364 13.7027 47.9599 12.8433 47.3917 11.7259C46.8235 10.6084 46.5394 9.27557 46.5394 7.72727C46.5394 6.17424 46.8235 4.84138 47.3917 3.72869C47.9599 2.61127 48.7364 1.75426 49.7212 1.15767C50.7108 0.556344 51.8353 0.255681 53.0948 0.255681C54.3496 0.255681 55.4693 0.556344 56.4542 1.15767C57.4438 1.75426 58.2227 2.61127 58.7908 3.72869C59.359 4.84138 59.6431 6.17424 59.6431 7.72727ZM57.4698 7.72727C57.4698 6.54356 57.2781 5.54687 56.8945 4.73722C56.5157 3.92282 55.9949 3.30729 55.332 2.89062C54.6739 2.46922 53.9281 2.25852 53.0948 2.25852C52.2567 2.25852 51.5086 2.46922 50.8505 2.89062C50.1924 3.30729 49.6715 3.92282 49.288 4.73722C48.9092 5.54687 48.7198 6.54356 48.7198 7.72727C48.7198 8.91098 48.9092 9.91004 49.288 10.7244C49.6715 11.5341 50.1924 12.1496 50.8505 12.571C51.5086 12.9877 52.2567 13.196 53.0948 13.196C53.9281 13.196 54.6739 12.9877 55.332 12.571C55.9949 12.1496 56.5157 11.5341 56.8945 10.7244C57.2781 9.91004 57.4698 8.91098 57.4698 7.72727ZM64.3793 15V0.454545H69.5639C70.6908 0.454545 71.6259 0.648674 72.3693 1.03693C73.1174 1.42519 73.6761 1.96259 74.0455 2.64915C74.4148 3.33097 74.5994 4.11932 74.5994 5.0142C74.5994 5.90436 74.4124 6.68797 74.0384 7.36506C73.669 8.03741 73.1103 8.56061 72.3622 8.93466C71.6188 9.30871 70.6837 9.49574 69.5568 9.49574H65.6293V7.60653H69.358C70.0682 7.60653 70.6458 7.50473 71.0909 7.30114C71.5407 7.09754 71.8698 6.80161 72.0781 6.41335C72.2865 6.02509 72.3906 5.55871 72.3906 5.0142C72.3906 4.46496 72.2841 3.98911 72.071 3.58665C71.8627 3.18419 71.5336 2.87642 71.0838 2.66335C70.6387 2.44555 70.054 2.33665 69.3295 2.33665H66.5739V15H64.3793ZM71.5597 8.4375L75.1534 15H72.6534L69.1307 8.4375H71.5597ZM78.5526 2.34375V0.454545H89.8097V2.34375H85.2713V15H83.0838V2.34375H78.5526ZM94.2972 15V0.454545H103.417V2.34375H96.4918V6.77557H102.941V8.65767H96.4918V13.1108H103.502V15H94.2972Z" fill="#FE471B"/>
</svg>
