<svg width="224" height="81" viewBox="0 0 224 81" fill="none" xmlns="http://www.w3.org/2000/svg">
<g clip-path="url(#clip0_56_1237)">
<path d="M161.375 30.3948H153.753V56.4361C153.752 56.6732 153.657 56.9008 153.489 57.0684C153.321 57.2363 153.093 57.3307 152.855 57.3312H146.977C146.739 57.3307 146.511 57.2363 146.342 57.0684C146.174 56.9008 146.079 56.6732 146.079 56.4361V30.3948H138.412C138.297 30.3996 138.182 30.3809 138.074 30.3404C137.965 30.2999 137.866 30.2381 137.783 30.1588C137.699 30.0795 137.632 29.9842 137.586 29.8787C137.54 29.7731 137.516 29.6591 137.514 29.5441V24.9379C137.516 24.8228 137.54 24.709 137.586 24.6034C137.632 24.4978 137.699 24.4025 137.783 24.3231C137.866 24.2438 137.965 24.182 138.074 24.1415C138.182 24.101 138.297 24.0826 138.412 24.0873H161.373C161.611 24.0762 161.843 24.1594 162.02 24.3188C162.197 24.4781 162.303 24.7008 162.315 24.9379V29.546C162.302 29.7823 162.196 30.0044 162.02 30.1633C161.844 30.3222 161.612 30.4054 161.375 30.3948Z" fill="#DE1E4E"/>
<path d="M185.844 57.1441C184.273 57.367 181.631 57.7254 176.785 57.7254C170.997 57.7254 165.883 56.2486 165.883 48.1081V33.2497C165.883 25.1091 171.044 23.6772 176.83 23.6772C181.674 23.6772 184.273 24.0356 185.844 24.2585C186.471 24.3476 186.742 24.5724 186.742 25.1537V29.3198C186.741 29.5569 186.646 29.7843 186.478 29.9521C186.31 30.12 186.082 30.2144 185.844 30.215H176.383C174.274 30.215 173.512 30.93 173.512 33.2572V37.3284H185.486C185.724 37.329 185.952 37.4234 186.12 37.591C186.288 37.7588 186.383 37.9862 186.384 38.2236V42.473C186.383 42.7105 186.288 42.9378 186.12 43.1057C185.952 43.2733 185.724 43.368 185.486 43.3682H173.512V48.1101C173.512 50.4353 174.274 51.1523 176.383 51.1523H185.844C186.082 51.1529 186.31 51.2473 186.478 51.4152C186.646 51.5828 186.741 51.8104 186.742 52.0475V56.2079C186.742 56.7855 186.471 57.0547 185.844 57.1441Z" fill="#DE1E4E"/>
<path d="M219.695 57.3223H212.562C211.979 57.3223 211.709 57.1366 211.396 56.652L205.21 46.8621L199.606 56.4363C199.291 56.9732 198.978 57.3318 198.488 57.3318H191.848C191.399 57.3318 191.176 57.0623 191.176 56.7503C191.184 56.6408 191.215 56.5341 191.265 56.4363L200.985 40.278L191.165 24.9347C191.115 24.8528 191.084 24.7607 191.075 24.6653C191.091 24.501 191.17 24.3491 191.295 24.2409C191.42 24.1327 191.582 24.0766 191.748 24.084H198.971C199.464 24.084 199.824 24.5316 200.089 24.9347L205.829 33.9706L211.384 24.9347C211.608 24.5316 212.012 24.084 212.502 24.084H219.142C219.308 24.0766 219.47 24.1327 219.595 24.2409C219.72 24.3491 219.798 24.501 219.815 24.6653C219.805 24.7607 219.775 24.8528 219.725 24.9347L209.954 40.3726L220.144 56.4363C220.224 56.5729 220.27 56.7263 220.278 56.8841C220.28 57.1441 220.055 57.3223 219.695 57.3223Z" fill="#DE1E4E"/>
<path d="M126.762 24.1764C126.602 24.1769 126.447 24.2326 126.323 24.3342C126.2 24.4358 126.115 24.5769 126.084 24.7336L119.571 48.7654C119.482 49.2575 119.347 49.4357 118.943 49.4357C118.539 49.4357 118.405 49.25 118.315 48.7654L111.795 24.728C111.764 24.5713 111.679 24.4302 111.555 24.3286C111.432 24.227 111.277 24.1713 111.116 24.1708H104.706C104.601 24.171 104.499 24.1945 104.405 24.2398C104.311 24.285 104.228 24.3508 104.163 24.4322C104.099 24.5136 104.053 24.6085 104.03 24.7099C104.007 24.8113 104.008 24.9166 104.031 25.0178C104.031 25.0178 111.986 52.5785 112.074 52.8494C113.136 56.1333 115.713 57.7027 118.992 57.7027C122.114 57.7027 124.84 56.059 125.905 52.8589C126.032 52.4874 133.81 25.0159 133.81 25.0159C133.833 24.9148 133.834 24.8098 133.81 24.7086C133.787 24.6075 133.742 24.5128 133.677 24.4316C133.612 24.3504 133.53 24.2848 133.436 24.2397C133.342 24.1946 133.24 24.171 133.136 24.1708L126.762 24.1764Z" fill="#DE1E4E"/>
<path d="M87.2631 0H17.585C12.1821 0 8.72246 5.72609 11.2506 10.4863L18.2203 23.6435H5.5851C4.78492 23.6438 3.99837 23.85 3.30163 24.2423C2.60489 24.6345 2.02157 25.1995 1.60818 25.8825C1.19479 26.5655 0.96533 27.3434 0.942034 28.1408C0.918737 28.9382 1.10239 29.7281 1.4752 30.4339L23.8933 72.7341C24.2885 73.4779 24.8796 74.1005 25.6031 74.5345C26.3265 74.9688 27.155 75.1982 27.9994 75.1982C28.8438 75.1982 29.6722 74.9688 30.3959 74.5345C31.1192 74.1005 31.7104 73.4779 32.1057 72.7341L38.1942 61.3078L45.8325 75.7244C48.521 80.7947 55.8036 80.8039 58.5014 75.7392L93.426 10.2207C95.8946 5.58677 92.5262 0 87.2631 0ZM55.9639 27.9933L40.9047 56.2503C40.6416 56.7452 40.2483 57.1589 39.7669 57.4477C39.2855 57.7365 38.7344 57.889 38.1727 57.889C37.6107 57.889 37.0597 57.7365 36.5785 57.4477C36.0971 57.1589 35.7035 56.7452 35.4404 56.2503L20.5267 28.1123C20.2775 27.6431 20.1539 27.1177 20.1681 26.587C20.1823 26.0563 20.3337 25.5382 20.6077 25.083C20.8816 24.6277 21.2689 24.2507 21.7319 23.9884C22.1949 23.7262 22.718 23.5875 23.2505 23.5859H53.3072C53.8262 23.586 54.3366 23.7199 54.7884 23.9748C55.2406 24.2297 55.6185 24.5968 55.8859 25.0405C56.1535 25.4841 56.3012 25.9893 56.3149 26.5067C56.3285 27.0241 56.2075 27.5363 55.9639 27.9933Z" fill="#DE1E4E"/>
</g>
<defs>
<clipPath id="clip0_56_1237">
<rect width="223" height="81" fill="white" transform="translate(0.940063)"/>
</clipPath>
</defs>
</svg>
