<svg width="128" height="77" viewBox="0 0 128 77" fill="none" xmlns="http://www.w3.org/2000/svg">
<g clip-path="url(#clip0_56_1245)">
<path d="M12.7269 0.5H116.103C122.645 0.5 127.941 5.80262 127.941 12.3535V51.8646C127.941 58.415 122.645 63.7181 116.103 63.7181H79.0313L84.1197 76.195L61.7414 63.7181H12.7795C6.23747 63.7181 0.941174 58.4155 0.941174 51.8646V12.3535C0.889253 5.85477 6.18538 0.5 12.7274 0.5H12.7269Z" fill="#7F54B3"/>
<path d="M8.17214 11.3039C8.8949 10.3218 9.97906 9.80483 11.4246 9.70146C14.0575 9.4947 15.5547 10.7353 15.9161 13.4233C17.5165 24.2273 19.2717 33.3766 21.1305 40.8722L32.4365 19.3166C33.469 17.3522 34.7596 16.3184 36.3084 16.215C38.58 16.0599 39.9739 17.5073 40.5418 20.5572C41.8324 27.4325 43.4844 33.2735 45.4462 38.2359C46.7885 25.1058 49.0601 15.6465 52.2611 9.80493C53.0355 8.35756 54.1712 7.63387 55.6684 7.53045C56.8558 7.42706 57.94 7.78891 58.9208 8.5643C59.9017 9.33969 60.418 10.3218 60.5212 11.5108C60.5729 12.4412 60.418 13.2166 60.005 13.992C57.9916 17.7139 56.3395 23.9688 54.9974 32.6527C53.7067 41.0788 53.2421 47.6436 53.5519 52.3476C53.6551 53.6399 53.4486 54.7772 52.9323 55.7593C52.3128 56.8966 51.3835 57.5169 50.1962 57.6203C48.8539 57.7236 47.46 57.1034 46.1178 55.7076C41.3166 50.7969 37.4961 43.4567 34.7086 33.6865C31.3529 40.303 28.875 45.2658 27.2746 48.5741C24.2287 54.4151 21.6474 57.4134 19.479 57.5684C18.0851 57.6718 16.8977 56.4828 15.8652 54.0016C13.2322 47.2297 10.3928 34.1517 7.34674 14.7672C7.14023 13.4232 7.44999 12.2343 8.17273 11.3038L8.17214 11.3039ZM119.119 19.4195C117.26 16.1629 114.524 14.1984 110.859 13.423C109.878 13.2162 108.948 13.1128 108.071 13.1128C103.115 13.1128 99.088 15.6975 95.9388 20.8668C93.2543 25.2607 91.912 30.1199 91.912 35.4439C91.912 39.4242 92.738 42.8358 94.39 45.6791C96.2485 48.9357 98.9847 50.9002 102.65 51.6756C103.631 51.8824 104.56 51.9858 105.438 51.9858C110.445 51.9858 114.472 49.4011 117.57 44.2318C120.254 39.7862 121.597 34.927 121.597 29.603C121.648 25.571 120.771 22.2112 119.119 19.4195ZM112.614 33.7383C111.891 37.15 110.6 39.6827 108.69 41.389C107.193 42.733 105.799 43.3016 104.508 43.0432C103.269 42.7847 102.237 41.6992 101.463 39.6832C100.843 38.0807 100.533 36.4783 100.533 34.9792C100.533 33.6869 100.637 32.3945 100.895 31.2056C101.359 29.0862 102.237 27.0185 103.631 25.0541C105.334 22.5212 107.141 21.4873 109 21.8492C110.239 22.1077 111.272 23.1932 112.046 25.2092C112.665 26.8116 112.975 28.4141 112.975 29.9132C112.975 31.2572 112.872 32.5495 112.614 33.7384L112.614 33.7383ZM86.8005 19.4195C84.942 16.1629 82.1542 14.1984 78.5406 13.423C77.5597 13.2162 76.6304 13.1128 75.7528 13.1128C70.7967 13.1128 66.77 15.6975 63.6208 20.8668C60.9362 25.2607 59.5939 30.1199 59.5939 35.4439C59.5939 39.4242 60.4199 42.8358 62.072 45.6791C63.9305 48.9357 66.6667 50.9002 70.3319 51.6756C71.3128 51.8824 72.2421 51.9858 73.1197 51.9858C78.1273 51.9858 82.1541 49.4011 85.2517 44.2318C87.9363 39.7862 89.2786 34.927 89.2786 29.603C89.2786 25.571 88.4526 22.2112 86.8005 19.4195ZM80.2441 33.7383C79.5214 37.15 78.2308 39.6827 76.3206 41.389C74.8234 42.733 73.4296 43.3016 72.1389 43.0432C70.8998 42.7847 69.8673 41.6992 69.0929 39.6832C68.4734 38.0807 68.1637 36.4783 68.1637 34.9792C68.1637 33.6869 68.2669 32.3945 68.525 31.2056C68.9897 29.0862 69.8673 27.0185 71.2612 25.0541C72.9648 22.5212 74.7718 21.4873 76.6304 21.8492C77.8695 22.1077 78.902 23.1932 79.6763 25.2092C80.2959 26.8116 80.6056 28.4141 80.6056 29.9132C80.6573 31.2572 80.5024 32.5495 80.2442 33.7384L80.2441 33.7383Z" fill="white"/>
</g>
<defs>
<clipPath id="clip0_56_1245">
<rect width="127" height="76" fill="white" transform="translate(0.940063 0.5)"/>
</clipPath>
</defs>
</svg>
