<svg width="18" height="13" viewBox="0 0 18 13" fill="none" xmlns="http://www.w3.org/2000/svg">
<path fill-rule="evenodd" clip-rule="evenodd" d="M15.2759 0.49952C16.0112 0.70103 16.5904 1.29478 16.7869 2.04878C17.1441 3.41533 17.1441 6.26663 17.1441 6.26663C17.1441 6.26663 17.1441 9.11784 16.7869 10.4845C16.5904 11.2385 16.0112 11.8322 15.2759 12.0338C13.9432 12.4 8.59889 12.4 8.59889 12.4C8.59889 12.4 3.25456 12.4 1.9218 12.0338C1.18643 11.8322 0.607302 11.2385 0.410763 10.4845C0.0537109 9.11784 0.0537109 6.26663 0.0537109 6.26663C0.0537109 6.26663 0.0537109 3.41533 0.410763 2.04878C0.607302 1.29478 1.18643 0.70103 1.9218 0.49952C3.25456 0.133301 8.59889 0.133301 8.59889 0.133301C8.59889 0.133301 13.9432 0.133301 15.2759 0.49952ZM6.99668 3.86658V9.19991L11.2693 6.53335L6.99668 3.86658Z" fill="#1B1C31"/>
</svg>
