<svg width="208" height="41" viewBox="0 0 208 41" fill="none" xmlns="http://www.w3.org/2000/svg">
<path d="M20.6057 21.3603C20.6057 24.4623 19.6825 27.0752 17.8293 29.1904C15.8955 31.4066 13.3827 32.5191 10.3067 32.5191C7.22259 32.5191 4.71794 31.4066 2.78404 29.1904C0.930176 27.0752 0 24.4623 0 21.3603C0 18.2498 0.930176 15.6377 2.78404 13.5302C4.7394 11.3347 7.25229 10.2375 10.3067 10.2375C13.3827 10.2375 15.8955 11.3347 17.8293 13.5302C19.6825 15.6377 20.6057 18.2498 20.6057 21.3603ZM14.4814 21.3603C14.4814 19.9553 14.1447 18.7693 13.4708 17.8105C12.7168 16.7206 11.6616 16.1792 10.3067 16.1792C8.9514 16.1792 7.8966 16.7206 7.1418 17.8105C6.4609 18.7693 6.12394 19.9553 6.12394 21.3603C6.12394 22.7576 6.4609 23.9577 7.1418 24.9454C7.8966 26.0353 8.9514 26.5775 10.3067 26.5775C11.6616 26.5775 12.7168 26.0353 13.4708 24.9454C14.1447 23.9577 14.4814 22.7576 14.4814 21.3603ZM42.7494 21.3603C42.7494 24.2579 41.9142 26.7896 40.2366 28.9556C38.442 31.3263 36.1273 32.5191 33.3144 32.5191C31.329 32.5191 29.6448 31.9412 28.2676 30.7998C28.2676 31.0626 28.2969 31.6995 28.3557 32.7175C28.4142 33.7408 28.4431 34.5751 28.4431 35.2338C28.4431 38.8717 27.359 40.6859 25.1913 40.6859C24.3046 40.6859 23.5798 40.3711 23.0008 39.749C22.4296 39.1203 22.1437 38.3651 22.1437 37.4735V13.8157C22.1437 12.9522 22.4369 12.2055 23.0228 11.5768C23.6086 10.9546 24.3342 10.6407 25.1985 10.6407C26.5019 10.6407 27.4544 11.2905 28.0553 12.5867C29.3371 11.0208 31.0878 10.2375 33.3071 10.2375C36.1273 10.2375 38.4347 11.4077 40.2366 13.7573C41.9069 15.9309 42.7494 18.4627 42.7494 21.3603ZM36.6251 21.3603C36.6251 19.9553 36.2816 18.7693 35.6076 17.8105C34.8524 16.7206 33.798 16.1792 32.4427 16.1792C31.0878 16.1792 30.033 16.7206 29.2782 17.8105C28.6042 18.7693 28.2676 19.9553 28.2676 21.3603C28.2676 22.7576 28.6042 23.9577 29.2782 24.9454C30.033 26.0353 31.0878 26.5775 32.4427 26.5775C33.798 26.5775 34.8524 26.0353 35.6076 24.9454C36.2816 23.9577 36.6251 22.7576 36.6251 21.3603ZM65.032 20.7024C65.032 21.7258 64.79 22.4283 64.3064 22.8241C63.8233 23.2114 63.0689 23.409 62.0506 23.409H50.9969C50.9969 24.5799 51.5466 25.4796 52.6452 26.1082C53.5315 26.5995 54.6156 26.8489 55.8974 26.8489C56.8942 26.8489 58.0879 26.5183 59.487 25.8681C60.8862 25.209 61.7867 24.8865 62.1757 24.8865C62.8858 24.8865 63.4863 25.143 63.9845 25.6698C64.4749 26.1898 64.7246 26.8189 64.7246 27.5436C64.7246 29.2184 63.4721 30.5224 60.9661 31.4585C59.0546 32.1606 57.1135 32.5191 55.1288 32.5191C51.9351 32.5191 49.3565 31.4585 47.3861 29.3442C45.4153 27.2289 44.4271 24.5726 44.4271 21.3603C44.4271 18.3009 45.4522 15.6888 47.503 13.5091C49.5465 11.3274 52.089 10.2375 55.1212 10.2375C57.9413 10.2375 60.2999 11.2694 62.1903 13.3327C64.0795 15.3968 65.032 17.8551 65.032 20.7024ZM58.9084 19.1648C58.8788 18.2278 58.4468 17.3793 57.6117 16.6103C56.7764 15.8425 55.8905 15.4625 54.9526 15.4625C53.9859 15.4625 53.0846 15.8425 52.2498 16.6103C51.415 17.3793 50.9969 18.2278 50.9969 19.1648H58.9084ZM85.6078 28.9036C85.6078 29.7972 85.3224 30.5504 84.7517 31.1798C84.1726 31.8024 83.4471 32.1172 82.5609 32.1172C80.422 32.1172 79.3522 30.4193 79.3522 27.0314C79.3522 26.38 79.3964 25.3559 79.4841 23.9435C79.5796 22.5381 79.6238 21.5067 79.6238 20.8553C79.6238 17.2617 78.4589 15.4625 76.1369 15.4625C73.8145 15.4625 72.6574 17.2617 72.6574 20.8553C72.6574 21.5067 72.6939 22.5381 72.7597 23.9435C72.8332 25.3559 72.8697 26.38 72.8697 27.0314C72.8697 30.4193 71.8149 32.1172 69.7056 32.1172C68.8189 32.1172 68.0941 31.8024 67.5225 31.1798C66.9439 30.5504 66.6581 29.7972 66.6581 28.9036V13.8093C66.6581 12.9222 66.9439 12.1698 67.5225 11.5622C68.0941 10.9473 68.8266 10.6407 69.713 10.6407C71.1779 10.6407 72.1957 11.2905 72.767 12.5867C73.7561 11.0208 75.5064 10.2375 78.0119 10.2375C80.3339 10.2375 82.1801 10.8516 83.5353 12.0737C84.9197 13.3845 85.6078 15.1838 85.6078 17.4746V28.9036ZM104.821 28.2534C104.821 29.6361 103.922 30.7333 102.119 31.5392C100.691 32.1896 99.1395 32.5239 97.5703 32.5191C94.4852 32.5191 91.9809 31.4066 90.0474 29.1904C88.1937 27.0752 87.2635 24.4623 87.2635 21.3603C87.2635 18.2498 88.2086 15.6235 90.1056 13.4718C92.0026 11.3136 94.4852 10.2375 97.5703 10.2375C99.35 10.2375 100.881 10.5008 102.156 11.0208C103.935 11.7233 104.821 12.8204 104.821 14.3134C104.821 15.0666 104.587 15.7326 104.118 16.311C103.65 16.8817 103.048 17.1745 102.317 17.1745C101.818 17.1745 101.1 17.0062 100.163 16.6776C99.2252 16.3402 98.4789 16.1792 97.9297 16.1792C96.4712 16.1792 95.3356 16.6987 94.5227 17.7374C93.7681 18.6744 93.387 19.8746 93.387 21.3603C93.387 22.7576 93.724 23.9435 94.4062 24.902C95.1592 26.0218 96.2225 26.5775 97.577 26.5775C98.1785 26.5775 98.998 26.4019 100.046 26.0425C101.094 25.6925 101.848 25.5096 102.317 25.5096C102.998 25.5096 103.583 25.8016 104.082 26.3727C104.573 26.9507 104.821 27.5721 104.821 28.2534ZM127.082 28.9036C127.082 29.7972 126.797 30.5504 126.225 31.1798C125.647 31.8024 124.915 32.1172 124.027 32.1172C122.694 32.1172 121.742 31.4654 121.171 30.1703C119.89 31.7368 118.138 32.5191 115.919 32.5191C113.078 32.5191 110.748 31.3263 108.945 28.9556C107.305 26.7896 106.479 24.2579 106.479 21.3603C106.479 18.4627 107.305 15.9309 108.945 13.7573C110.777 11.4077 113.099 10.2375 115.919 10.2375C118.138 10.2375 119.89 11.0208 121.171 12.5867C121.742 11.2905 122.694 10.6407 124.027 10.6407C124.892 10.6407 125.618 10.9546 126.204 11.5768C126.789 12.2055 127.082 12.9449 127.082 13.8093V28.9036ZM120.959 21.3603C120.959 19.9553 120.623 18.7693 119.948 17.8105C119.164 16.7206 118.109 16.1792 116.784 16.1792C115.428 16.1792 114.374 16.7206 113.619 17.8105C112.938 18.7693 112.602 19.9553 112.602 21.3603C112.602 22.7576 112.93 23.9577 113.581 24.9454C114.359 26.0353 115.428 26.5775 116.784 26.5775C118.138 26.5775 119.193 26.0353 119.948 24.9454C120.623 23.9577 120.959 22.7576 120.959 21.3603ZM142.707 13.4057C142.707 14.7154 142.07 15.6153 140.795 16.1053C139.616 16.5012 138.443 16.9044 137.272 17.3201C135.989 18.0526 135.352 19.4134 135.352 21.3895V28.9036C135.352 29.7972 135.059 30.5504 134.489 31.1798C133.909 31.8024 133.177 32.1172 132.29 32.1172C131.398 32.1172 130.664 31.8024 130.094 31.1798C129.514 30.5504 129.229 29.7972 129.229 28.9036V13.8093C129.229 12.9222 129.514 12.1698 130.086 11.5622C130.664 10.9473 131.398 10.6407 132.284 10.6407C133.748 10.6407 134.766 11.2905 135.338 12.5867C136.649 11.0208 138.056 10.2375 139.572 10.2375C140.436 10.2375 141.176 10.5515 141.791 11.1736C142.398 11.8031 142.707 12.5494 142.707 13.4057ZM158.683 13.6839C158.683 15.0447 158.148 15.9009 157.087 16.2675C156.566 16.4501 155.473 16.545 153.811 16.545V28.9036C153.811 29.7972 153.518 30.5504 152.948 31.1798C152.368 31.8024 151.636 32.1172 150.75 32.1172C149.886 32.1172 149.153 31.8024 148.566 31.1798C147.981 30.5504 147.688 29.7972 147.688 28.9036V16.545C146.428 16.545 145.513 16.384 144.934 16.0701C144.144 15.6308 143.753 14.833 143.753 13.6839C143.753 12.5356 144.156 11.7524 144.969 11.3347C145.519 11.0272 146.428 10.867 147.688 10.867V8.24723C147.688 5.16675 148.705 3.63029 150.75 3.63029C152.786 3.63029 153.811 5.16675 153.811 8.24723V10.867C155.473 10.867 156.566 10.9619 157.087 11.1444C158.148 11.5103 158.683 12.36 158.683 13.6839ZM207.88 9.9682C207.864 8.08989 204.389 7.2373 195.395 7.2373C174.292 7.2373 168.938 6.33684 163.209 0.314095C165.62 3.93042 166.938 10.7133 189.243 10.3758C212.515 10.0177 198.318 16.3702 194.187 23.5473C201.637 16.9052 207.858 12.5271 207.88 9.99538V9.9682ZM178.226 29.2557C178.225 31.0016 176.788 32.438 175.039 32.4384C173.274 32.4384 171.846 31.0123 171.846 29.2557C171.846 29.2549 171.846 29.2541 171.846 29.2532C171.846 27.5044 173.286 26.0653 175.038 26.0653C175.039 26.0653 175.039 26.0653 175.039 26.0653C176.799 26.0653 178.226 27.4918 178.226 29.2557ZM192.759 29.2557C192.758 31.0016 191.32 32.438 189.572 32.4384C187.808 32.4384 186.38 31.0123 186.38 29.2557C186.38 29.2549 186.38 29.2541 186.38 29.2532C186.38 27.5044 187.82 26.0653 189.57 26.0653C189.571 26.0653 189.571 26.0653 189.572 26.0653C191.332 26.0653 192.759 27.4918 192.759 29.2557Z" fill="url(#paint0_linear_56_1263)"/>
<defs>
<linearGradient id="paint0_linear_56_1263" x1="103.94" y1="32.2498" x2="103.94" y2="0.314178" gradientUnits="userSpaceOnUse">
<stop stop-color="#04B6F0"/>
<stop offset="1" stop-color="#3ECAF0"/>
</linearGradient>
</defs>
</svg>
