<svg width="164" height="56" viewBox="0 0 164 56" fill="none" xmlns="http://www.w3.org/2000/svg">
<path d="M43.5091 11.7709C42.9351 11.3194 40.8687 10.6873 39.5649 10.3261C39.2533 9.16041 38.9827 8.35593 38.8351 7.97011C37.7117 5.12981 37.3673 4.78504 34.4891 4.25146C31.8569 3.75892 27.8963 3.66862 23.8947 3.75892C19.8931 3.66862 15.9325 3.75892 13.3003 4.25146C10.4221 4.78504 10.0777 5.12981 8.95434 7.97011C8.79854 8.35593 8.54434 9.13578 8.23274 10.2768C6.95354 10.6298 4.69854 11.3029 4.09174 11.7791C3.23894 12.4522 -0.221456 18.3462 0.811743 19.9141C1.79574 21.5231 2.96834 22.2783 3.95234 21.5641C4.89534 20.7597 5.86294 13.5194 5.86294 13.5194C6.46974 13.544 6.99454 13.5604 7.44554 13.5768C6.16634 19.7992 4.90354 30.4544 6.91254 43.1291C7.12574 44.4671 8.01954 45.3865 9.52014 45.9776C9.50374 46.1007 9.49554 46.2238 9.49554 46.347V49.2283C9.49554 50.9111 10.8649 52.2738 12.5623 52.2738C14.2515 52.2738 15.6291 50.9111 15.6291 49.2283V46.7656C17.7611 46.7902 20.7623 46.782 23.8865 46.7656C26.8713 46.782 29.7413 46.7902 31.8569 46.7738V49.2365C31.8569 50.9194 33.2263 52.282 34.9237 52.282C36.6129 52.282 37.9905 50.9194 37.9905 49.2365V46.3552C37.9905 46.2649 37.9823 46.1746 37.9741 46.0925C39.6469 45.5097 40.6391 44.5656 40.8687 43.1455C42.8777 30.4626 41.6149 19.8074 40.3357 13.585C40.7457 13.5768 41.2131 13.5604 41.7379 13.5358C41.7379 13.5358 42.7055 20.7761 43.6485 21.5806C44.6325 22.2947 45.8051 21.5313 46.7891 19.9306C47.8141 18.338 44.3619 12.444 43.5091 11.7709ZM19.4667 5.98355H28.7655C29.7823 5.98355 29.6839 6.52534 29.6839 7.19847C29.6839 7.8716 29.7823 8.4216 28.7655 8.4216H19.4667C18.4499 8.4216 18.4991 7.8716 18.4991 7.19847C18.4991 6.52534 18.4499 5.98355 19.4667 5.98355ZM16.9493 42.6611C16.2851 43.285 11.9801 42.3656 10.6681 42.1111C9.36434 41.8649 9.46274 42.0619 9.01174 41.0604C8.56074 40.0589 8.73294 37.3992 9.01174 37.2597C9.29054 37.1201 9.22494 37.0708 10.4713 37.4649C13.8333 38.5156 17.5889 40.9947 16.9493 42.6611ZM38.7859 41.0604C38.3349 42.0619 38.4333 41.8567 37.1295 42.1111C35.8257 42.3574 31.5125 43.285 30.8483 42.6611C30.2087 40.9947 33.9643 38.5156 37.3263 37.4649C38.5727 37.0791 38.5071 37.1283 38.7859 37.2597C39.0565 37.3992 39.2369 40.0589 38.7859 41.0604ZM39.4747 29.1082C38.8925 30.947 37.9577 32.1209 36.2439 32.3261C34.5219 32.5231 13.7103 32.5313 11.4553 32.2358C9.20034 31.932 8.80674 30.8567 8.22454 29.0179C7.64234 27.1791 9.23314 16.4171 9.83994 14.4552C10.4467 12.4932 10.6845 11.7955 13.0707 11.2373C15.4651 10.6791 32.9065 10.8186 34.6285 11.3276C36.3423 11.8447 37.2525 12.5753 37.8593 14.5455C38.4661 16.5074 40.0569 27.2694 39.4747 29.1082Z" fill="#DBDBDB"/>
<path d="M79.0397 25.6275C79.0397 26.8671 78.0393 27.8686 76.8011 27.8686C75.5629 27.8686 74.5625 26.8671 74.5625 25.6275C74.5625 24.388 75.5629 23.3865 76.8011 23.3865C78.0393 23.3865 79.0397 24.388 79.0397 25.6275Z" fill="#DBDBDB"/>
<path d="M68.6504 21.8351H71.709V46.8396H68.6504V21.8351Z" fill="#DBDBDB"/>
<path d="M75.2759 46.8313V29.8224H78.3345V46.8313H75.2759Z" fill="#DBDBDB"/>
<path d="M63.6074 42.6776C62.3282 43.3343 60.8768 43.7037 59.3434 43.7037C54.1691 43.7037 49.9707 39.5007 49.9707 34.3208C49.9707 29.141 54.1691 24.938 59.3434 24.938C60.885 24.938 62.3282 25.3074 63.6074 25.9641L64.985 23.2716C63.2958 22.4014 61.377 21.9171 59.3434 21.9171C52.4963 21.9171 46.9531 27.4746 46.9531 34.3208C46.9531 41.1753 52.5045 46.7246 59.3434 46.7246C61.377 46.7246 63.2958 46.232 64.985 45.3701L63.6074 42.6776Z" fill="#DBDBDB"/>
<path d="M93.5619 43.0388C92.7583 43.4493 91.8564 43.6791 90.897 43.6791C87.658 43.6791 85.034 41.0523 85.034 37.8097C85.034 34.5672 87.658 31.9403 90.897 31.9403C91.8564 31.9403 92.7665 32.1702 93.5619 32.5806L94.9477 29.8716C93.7341 29.2478 92.3565 28.8948 90.897 28.8948C85.977 28.8948 81.9918 32.8843 81.9918 37.8097C81.9918 42.7351 85.977 46.7246 90.897 46.7246C92.3565 46.7246 93.7341 46.3717 94.9477 45.7478L93.5619 43.0388Z" fill="#DBDBDB"/>
<path d="M109.486 46.5604L113.16 46.5769L105.714 36.1104L112.168 29.5925L107.814 29.6172L101.942 35.5604V21.5724H98.8838V46.5769H101.942V39.9194L103.566 38.2858L109.486 46.5604Z" fill="#DBDBDB"/>
<path d="M127.879 34.0582C129.224 32.8022 130.06 31.0209 130.06 29.0425C130.06 25.3239 127.108 22.303 123.426 22.1798H118.515V22.1716H115.415V22.1798V25.2664V46.5769H118.515V46.5686H124.189V46.5522C127.871 46.4291 130.823 43.4082 130.823 39.6895C130.814 37.3582 129.65 35.2977 127.879 34.0582ZM123.426 25.2746C125.402 25.3895 126.977 27.0313 126.977 29.0425C126.977 30.9388 125.575 32.5067 123.754 32.7776C123.582 32.8022 123.41 32.8104 123.229 32.8104H118.506V25.2746H123.426ZM124.189 43.4574V43.4821H118.515V35.9216H124C124.172 35.9216 124.336 35.9298 124.509 35.9545C126.337 36.2172 127.739 37.7933 127.739 39.6895C127.731 41.7007 126.165 43.3425 124.189 43.4574Z" fill="#DBDBDB"/>
<path d="M148.756 29.3544H145.697V39.7305C145.599 41.9141 143.803 43.6544 141.597 43.6544C139.334 43.6544 137.506 41.8238 137.497 39.5663H137.506V29.3544H134.447V39.5663C134.455 43.5148 137.653 46.7163 141.606 46.7163C145.263 46.7163 148.28 43.9663 148.707 40.42L148.764 40.3626V29.3544H148.756Z" fill="#DBDBDB"/>
<path d="M158.662 36.2992C156.882 35.4209 155.792 34.8216 155.792 33.5821C155.792 32.3671 156.685 31.5462 158.022 31.5462C159.301 31.5462 160.359 31.9895 161.163 32.8597L161.556 33.2865L163.172 30.9716L162.901 30.6925C161.704 29.4365 160.031 28.7716 158.063 28.7716C154.988 28.7716 152.766 30.8321 152.766 33.6724C152.766 36.8656 155.226 38.0313 157.194 38.9671L157.325 39.0328C159.162 39.9276 160.375 40.6253 160.375 42.1522C160.375 43.2604 159.695 44.4425 157.784 44.4425C156.439 44.4425 155.111 43.8022 154.225 42.7432L153.832 42.2671L152.143 44.6477L152.397 44.9268C153.725 46.4044 155.587 47.1843 157.776 47.1843C161.892 47.1843 163.352 44.4097 163.352 42.0291C163.377 38.5813 160.761 37.3171 158.662 36.2992Z" fill="#DBDBDB"/>
</svg>
