<svg width="40" height="39" viewBox="0 0 40 39" fill="none" xmlns="http://www.w3.org/2000/svg">
<path d="M29.2 14.418H30.9C32.7034 14.418 34.433 15.1344 35.7083 16.4096C36.9835 17.6849 37.7 19.4145 37.7 21.218C37.7 23.0214 36.9835 24.751 35.7083 26.0263C34.433 27.3015 32.7034 28.018 30.9 28.018H29.2" stroke="#FF481C" stroke-width="3.5" stroke-linecap="round" stroke-linejoin="round"/>
<path d="M2 14.418H29.2V29.718C29.2 31.5214 28.4836 33.251 27.2083 34.5263C25.9331 35.8015 24.2035 36.518 22.4 36.518H8.8C6.99653 36.518 5.26692 35.8015 3.99167 34.5263C2.71643 33.251 2 31.5214 2 29.718V14.418Z" stroke="#FF481C" stroke-width="3.5" stroke-linecap="round" stroke-linejoin="round"/>
<path d="M8.80005 2.51794V7.61794" stroke="#FF481C" stroke-width="3.5" stroke-linecap="round" stroke-linejoin="round"/>
<path d="M15.6001 2.51794V7.61794" stroke="#FF481C" stroke-width="3.5" stroke-linecap="round" stroke-linejoin="round"/>
<path d="M22.3999 2.51794V7.61794" stroke="#FF481C" stroke-width="3.5" stroke-linecap="round" stroke-linejoin="round"/>
</svg>
