<svg width="111" height="56" viewBox="0 0 111 56" fill="none" xmlns="http://www.w3.org/2000/svg">
<g clip-path="url(#clip0_56_848)">
<path d="M95.7245 50.2998C95.3108 50.0776 94.8741 49.9612 94.4325 49.9612C93.9781 49.9612 93.5608 50.0776 93.1483 50.2998C92.7213 50.5433 92.4024 50.8669 92.1491 51.3038C91.9128 51.7388 91.8113 52.1951 91.8113 52.6596C91.8113 53.1265 91.9128 53.569 92.1491 53.9997C92.3896 54.4303 92.7055 54.7664 93.127 54.9961C93.5468 55.2396 93.9678 55.3529 94.4318 55.3529C94.8832 55.3529 95.3212 55.239 95.7239 54.9961C96.1406 54.7664 96.4796 54.4303 96.6903 53.9997C96.926 53.569 97.0396 53.1265 97.0396 52.6596C97.0396 52.1951 96.9254 51.7388 96.6903 51.3038C96.4644 50.8669 96.1376 50.5427 95.7245 50.2998ZM96.3307 53.7706C96.1236 54.1274 95.8484 54.4065 95.504 54.6068C95.1663 54.8121 94.8079 54.9123 94.4325 54.9123C94.054 54.9123 93.6853 54.8121 93.3512 54.6068C93.0037 54.4065 92.731 54.1274 92.5311 53.7706C92.3434 53.4295 92.2578 53.0577 92.2578 52.6596C92.2578 52.2746 92.3538 51.8916 92.5421 51.5335C92.7316 51.1717 93.0135 50.8963 93.3585 50.7023C93.7059 50.5045 94.0643 50.41 94.4331 50.41C94.7988 50.41 95.1535 50.5039 95.5046 50.7023C95.8387 50.897 96.1042 51.1717 96.3313 51.5335C96.519 51.8916 96.6047 52.2746 96.6047 52.6596C96.6041 53.0577 96.5178 53.4295 96.3307 53.7706ZM94.8838 53.0088C94.8303 52.9538 94.7544 52.8987 94.6414 52.8549C94.8838 52.8317 95.0909 52.7409 95.2422 52.587C95.3868 52.4292 95.4505 52.2408 95.4505 52.033C95.4505 51.8866 95.408 51.7382 95.3218 51.6036C95.2422 51.4828 95.1219 51.3833 94.97 51.3289C94.8188 51.2775 94.5776 51.2556 94.2642 51.2556H93.2826V54.1443H93.7357V52.9325H94.0024C94.167 52.9275 94.2739 52.9531 94.3675 53.0239C94.4798 53.1121 94.6414 53.3368 94.8413 53.688L95.0909 54.1443H95.6504L95.3108 53.5841C95.1335 53.318 95.0023 53.1259 94.8838 53.0088ZM94.2812 52.5137H93.7357V51.6443H94.2642C94.4792 51.6443 94.6311 51.66 94.7052 51.6944C94.7981 51.7382 94.8741 51.7826 94.9051 51.8434C94.953 51.9178 94.97 51.9961 94.97 52.0793C94.97 52.2227 94.9257 52.3166 94.8309 52.4023C94.7325 52.4662 94.5552 52.5137 94.2812 52.5137ZM0.748535 0.75293L11.2544 50.8669L12.0532 50.4501C23.2272 44.5282 34.3842 44.8818 41.766 46.2238C49.7995 47.6747 55.2398 50.5671 55.3054 50.5871L55.5964 50.7536L55.8965 50.6084C69.0848 44.6903 79.9764 45.0314 86.7889 46.3553C94.167 47.798 98.4963 50.6766 98.5413 50.7098L99.3716 51.265L99.5855 50.2723L110.361 0.75293H0.748535Z" fill="#DBDBDB"/>
<path d="M76.6665 12.0171V15.802H78.6182L77.6518 18.6343H78.5325L80.6664 16.0322H80.6669V12.0171H76.6665ZM39.3205 14.3216C33.4956 14.3216 30.0161 17.6045 30.0161 23.0951C30.0161 28.5876 33.3593 31.8774 39.6695 31.8774C45.4081 31.8774 48.0294 29.6767 48.6514 25.9143H43.5215C43.236 27.3696 41.8924 27.8715 40.1356 27.8715C38.0812 27.8715 36.7867 26.4402 36.7867 24.103H48.5452C48.5956 23.8314 48.6221 23.4713 48.6221 23.0951C48.6221 18.3356 45.5335 14.3216 39.3205 14.3216ZM89.5794 14.373C84.4058 14.373 81.094 16.4714 81.094 20.0523C81.094 26.7441 90.9295 24.4762 90.9295 26.8434C90.9295 27.7379 90.2132 28.2046 88.8179 28.2046C87.2373 28.2046 86.1139 27.4783 86.1139 26.0412H80.9547V26.1369C80.9547 29.1713 83.052 31.6772 88.6976 31.6772C95.0679 31.6772 97.5049 29.1274 97.5061 25.8476C97.5061 19.0375 87.2207 21.5977 87.2207 18.9876C87.2207 18.4511 87.8839 17.8424 89.5908 17.8424C91.268 17.8424 92.2531 18.6358 92.2531 19.4294H96.9765C96.9765 16.6785 94.1833 14.373 89.5794 14.373ZM68.8173 14.6995V31.3043H74.9781V14.6995H68.8173ZM46.9187 14.7318L55.0025 31.3398H60.0674L67.8927 14.7318H62.8034L58.462 24.3212H58.3493L54.0117 14.7318H46.9187ZM14.2517 14.8756V31.3119H29.7196V27.1152H20.4098V14.8756H14.2517ZM39.3682 17.8758C41.1213 17.8758 41.7139 19.3295 41.7139 21.1515H37.0121C37.0121 19.5204 37.626 17.8758 39.3682 17.8758Z" fill="#FFFEFC"/>
</g>
<defs>
<clipPath id="clip0_56_848">
<rect width="111" height="56" fill="white"/>
</clipPath>
</defs>
</svg>
