<svg width="137" height="40" viewBox="0 0 137 40" fill="none" xmlns="http://www.w3.org/2000/svg">
<g clip-path="url(#clip0_56_811)">
<path fill-rule="evenodd" clip-rule="evenodd" d="M15.5552 8.22951C19.0163 8.22412 22.3795 9.38376 25.1084 11.5235C21.283 14.3132 19.0833 17.3597 17.0417 20.1914C13.992 24.4239 11.3813 28.04 1.80012 28.5956L0.743288 28.6563C-0.00674395 26.3107 -0.194851 23.8202 0.194283 21.3877C0.583416 18.9551 1.53878 16.6494 2.98256 14.6583C4.42634 12.6672 6.31768 11.0471 8.50251 9.92994C10.6873 8.81276 13.1038 8.23013 15.5552 8.22951ZM30.2045 18.5923C28.193 20.9268 26.7459 23.2613 25.4359 25.402C20.9949 32.6273 17.785 37.8495 4.76389 35.1112C7.29101 37.5571 10.5663 39.0729 14.0583 39.4128C17.5503 39.7527 21.0541 38.8968 24.0012 36.9837C26.9484 35.0707 29.1659 32.2129 30.294 28.8741C31.4222 25.5352 31.3947 21.9112 30.2161 18.59L30.2045 18.5923Z" fill="#DBDBDB"/>
<path fill-rule="evenodd" clip-rule="evenodd" d="M35.1146 38.9001L37.0332 16.3676H39.767L42.8074 31.969L45.9268 16.3676H48.5654L50.5165 38.9001H47.7199L46.8164 23.0956L43.8224 38.9001H41.7785L38.7845 23.0956L37.8786 38.9001H35.1146Z" fill="#DBDBDB"/>
<path fill-rule="evenodd" clip-rule="evenodd" d="M55.4917 31.306C55.4917 33.2421 55.6528 34.6054 55.9749 35.396C56.2969 36.1866 56.8265 36.5827 57.5636 36.5843C58.3022 36.5843 58.8318 36.1851 59.1523 35.389C59.4729 34.593 59.6378 33.232 59.6378 31.306C59.6378 29.38 59.4798 28.0167 59.1616 27.2393C58.8434 26.4619 58.3115 26.0721 57.5636 26.0721C56.8157 26.0721 56.2838 26.4619 55.9679 27.2393C55.652 28.0167 55.5034 29.3707 55.5034 31.306H55.4917ZM59.5449 38.9001V37.42C59.2283 37.9652 58.7832 38.4238 58.2488 38.7554C57.7357 39.0443 57.1552 39.1901 56.5672 39.1779C55.2974 39.1779 54.335 38.5149 53.68 37.1889C53.025 35.8629 52.6937 33.902 52.6859 31.306C52.6859 28.7334 53.0111 26.788 53.6615 25.4698C54.3118 24.1516 55.2765 23.4901 56.5555 23.4855C57.1479 23.4723 57.7334 23.6156 58.2534 23.901C58.7837 24.2231 59.2246 24.6743 59.5356 25.213V23.7609H62.2996V38.9024L59.5449 38.9001Z" fill="#DBDBDB"/>
<path fill-rule="evenodd" clip-rule="evenodd" d="M67.5767 30.8741L64.6129 23.7585H67.5163L69.0191 28.1264L70.5567 23.7585H73.4276L70.494 30.8741L73.9502 38.9001H71.0329L69.0191 33.6218L67.0401 38.9001H64.1066L67.5767 30.8741Z" fill="#DBDBDB"/>
<path fill-rule="evenodd" clip-rule="evenodd" d="M75.2858 38.9001L77.2043 16.3676H79.9381L82.9786 31.969L86.0956 16.3676H88.7342L90.6853 38.9001H87.8934L86.9875 23.0956L83.9936 38.9001H81.9496L78.9556 23.0956L78.0498 38.9001H75.2858Z" fill="#DBDBDB"/>
<path fill-rule="evenodd" clip-rule="evenodd" d="M93.5283 38.9001V23.7586H96.2923V38.9001H93.5283ZM93.1427 19.2367C93.1377 18.9997 93.1801 18.7641 93.2675 18.5439C93.3549 18.3237 93.4854 18.1235 93.6514 17.955C93.8155 17.7892 94.0105 17.6575 94.2254 17.5677C94.4402 17.4779 94.6706 17.4316 94.9033 17.4316C95.136 17.4316 95.3664 17.4779 95.5813 17.5677C95.7962 17.6575 95.9912 17.7892 96.1553 17.955C96.3204 18.124 96.4503 18.3244 96.5372 18.5445C96.6242 18.7646 96.6665 18.9999 96.6616 19.2367C96.6659 19.4707 96.6223 19.7031 96.5336 19.9196C96.4449 20.136 96.313 20.3318 96.146 20.495C95.9868 20.6619 95.7952 20.794 95.583 20.8831C95.3708 20.9723 95.1426 21.0166 94.9126 21.0132C94.679 21.0183 94.4468 20.9759 94.2299 20.8884C94.0131 20.801 93.816 20.6703 93.6507 20.5044C93.4853 20.3384 93.3551 20.1405 93.2678 19.9227C93.1805 19.7048 93.138 19.4715 93.1427 19.2367Z" fill="#DBDBDB"/>
<path d="M102.587 14.9785H99.8228V38.9H102.587V14.9785Z" fill="#DBDBDB"/>
<path fill-rule="evenodd" clip-rule="evenodd" d="M106.089 38.9V14.9785H108.853V25.2713C109.151 24.7454 109.591 24.3148 110.122 24.0293C110.704 23.7336 111.351 23.5876 112.003 23.6044C113.107 23.6044 113.929 23.9157 114.467 24.5382C115.006 25.1569 115.271 26.0977 115.271 27.3606V38.907H112.484V28.731C112.484 27.7007 112.351 27.0004 112.084 26.63C111.817 26.2611 111.357 26.072 110.702 26.072C110.441 26.0534 110.18 26.096 109.938 26.1965C109.696 26.2969 109.481 26.4525 109.309 26.651C108.999 27.0385 108.844 27.6128 108.844 28.3738V38.9H106.089Z" fill="#DBDBDB"/>
<path fill-rule="evenodd" clip-rule="evenodd" d="M120.801 31.3059C120.801 33.242 120.962 34.6053 121.285 35.396C121.607 36.1866 122.137 36.5827 122.876 36.5842C123.611 36.5842 124.14 36.1858 124.462 35.389C124.784 34.5921 124.945 33.2311 124.945 31.3059C124.945 29.3699 124.79 28.0143 124.481 27.2392C124.165 26.4595 123.633 26.072 122.887 26.072C122.142 26.072 121.605 26.4619 121.289 27.2392C120.973 28.0166 120.813 29.3706 120.825 31.3059H120.801ZM124.857 38.9V37.42C124.539 37.965 124.093 38.4234 123.558 38.7553C123.046 39.0438 122.466 39.1897 121.879 39.1778C120.608 39.1778 119.645 38.5148 118.992 37.1888C118.339 35.8629 118.011 33.9027 118.01 31.3083C118.01 28.7357 118.335 26.7902 118.985 25.472C119.635 24.1538 120.6 23.4924 121.879 23.4877C122.471 23.475 123.055 23.6182 123.575 23.9033C124.105 24.2257 124.546 24.6768 124.857 25.2153V23.7632H127.621V38.9047L124.857 38.9Z" fill="#DBDBDB"/>
<path fill-rule="evenodd" clip-rule="evenodd" d="M130.076 35.7064C130.423 36.0189 130.814 36.277 131.237 36.4721C131.607 36.6387 132.008 36.7254 132.413 36.7266C132.939 36.7482 133.453 36.5593 133.841 36.2013C134.022 36.03 134.165 35.8219 134.261 35.591C134.356 35.36 134.401 35.1113 134.394 34.8613C134.394 34.2108 133.888 33.4023 132.875 32.4358C132.74 32.3027 132.643 32.2023 132.566 32.144C131.584 31.2102 130.925 30.432 130.587 29.8095C130.247 29.185 130.073 28.4832 130.081 27.7715C130.081 26.4945 130.471 25.458 131.242 24.6549C131.635 24.2548 132.106 23.941 132.626 23.7337C133.146 23.5263 133.703 23.4298 134.262 23.4503C134.668 23.4504 135.073 23.5022 135.467 23.6044C135.876 23.7155 136.271 23.8721 136.645 24.0713V26.9287C136.378 26.6033 136.044 26.3397 135.667 26.156C135.282 25.9848 134.865 25.9003 134.445 25.9086C134.212 25.9002 133.979 25.9397 133.761 26.0248C133.544 26.1099 133.346 26.2388 133.179 26.4035C133.015 26.5657 132.885 26.7605 132.799 26.9754C132.714 27.1904 132.673 27.4209 132.68 27.6524C132.68 28.3216 133.166 29.0998 134.138 29.9869C134.33 30.1612 134.474 30.2951 134.568 30.3884C135.476 31.2312 136.113 31.9922 136.463 32.6716C136.819 33.3739 137 34.1526 136.991 34.9407C136.991 36.2278 136.604 37.2542 135.829 38.0199C135.055 38.7856 134.015 39.1685 132.71 39.1685C132.276 39.1676 131.843 39.1214 131.419 39.0307C130.957 38.9322 130.506 38.7924 130.069 38.6129L130.076 35.7064Z" fill="#DBDBDB"/>
<path fill-rule="evenodd" clip-rule="evenodd" d="M39.1631 8.28552C14.0245 15.1909 23.6776 30.2157 1.95801 31.4647C26.2512 38.2604 17.1137 18.9892 39.1631 8.28552Z" fill="#DBDBDB"/>
<path fill-rule="evenodd" clip-rule="evenodd" d="M47.8755 8.47227L47.8314 8.57731C47.7966 8.67069 47.7548 8.76407 47.7176 8.85745C47.6177 9.12592 47.4853 9.38506 47.3924 9.65352C47.3344 9.80993 47.2577 9.96401 47.195 10.1204C46.9976 10.6247 46.7862 11.1219 46.5888 11.6285C46.5168 11.8129 46.4285 11.995 46.3565 12.1794C46.245 12.4689 46.1242 12.7514 46.0035 13.0385C45.9733 13.1202 45.9384 13.1973 45.9059 13.272C45.8991 13.3066 45.8882 13.3403 45.8734 13.3724L44.9768 13.6315C44.9768 13.5965 44.9582 13.5685 44.9489 13.5358C44.9795 13.5063 45.0139 13.4812 45.0511 13.4611C45.093 13.1623 45.151 12.8634 45.1952 12.567C45.302 11.8666 45.4135 11.1896 45.518 10.4963C45.5668 10.1858 45.6202 9.8753 45.6667 9.56247C45.6806 9.46676 45.6969 9.37571 45.7108 9.27999C45.7241 9.22718 45.7326 9.17327 45.7363 9.11891H45.7108C45.7294 9.11891 45.7317 9.11891 45.7363 9.10257C45.741 9.08623 45.7178 9.0092 45.7131 8.96484C45.7131 8.86446 45.6783 8.75708 45.6736 8.65903L45.6574 8.59132C45.6574 8.45825 45.6109 8.31585 45.6063 8.18278C45.6063 8.15944 45.6063 8.13609 45.59 8.11275C45.59 8.01237 45.5505 7.90965 45.5436 7.8046C45.5436 7.7509 45.5227 7.69254 45.518 7.63418C45.5139 7.54772 45.5023 7.4618 45.4832 7.37739L44.3729 7.70188C44.2558 7.7463 44.1343 7.77838 44.0106 7.7976C43.985 7.7976 43.9479 7.8186 43.927 7.8186L43.7249 7.86763L43.1814 7.97502C43.0722 7.97502 42.963 8.02404 42.8515 8.03105L42.5055 8.0754C42.5055 8.13143 42.4474 8.19212 42.4265 8.24348C42.38 8.35787 42.3243 8.4606 42.2778 8.57499C42.2778 8.60534 42.2407 8.63568 42.2291 8.66836C42.0711 9.06055 41.8574 9.42707 41.6972 9.81926C41.6554 9.91731 41.595 10.0084 41.5578 10.1064C41.4928 10.2605 41.4068 10.4099 41.3418 10.5733C41.3418 10.5943 41.3209 10.6177 41.3139 10.6387C41.3153 10.648 41.3153 10.6574 41.3139 10.6667C41.3006 10.68 41.2889 10.6949 41.2791 10.711C41.2791 10.7274 41.2651 10.7624 41.2535 10.7741C41.0027 10.8441 40.7541 10.9165 40.5033 10.9935C40.4917 10.9702 40.4684 10.9492 40.4568 10.9305C40.4452 10.9118 40.4568 10.8745 40.4568 10.8581C40.4568 10.7927 40.4568 10.7321 40.4568 10.6714C40.4708 10.5266 40.4708 10.3819 40.4824 10.2371C40.494 10.0924 40.4824 10.0224 40.4963 9.91498C40.5288 9.56481 40.5288 9.21463 40.5637 8.85512C40.5776 8.68937 40.5637 8.52129 40.5892 8.35555C40.4545 8.38589 40.3175 8.39989 40.1897 8.4209C40.1897 8.45125 40.1897 8.45125 40.2083 8.4816C40.1057 8.49284 40.0059 8.52207 39.9133 8.56798C39.8971 8.51195 39.9133 8.47927 39.9017 8.4209C39.833 8.42777 39.7637 8.42777 39.695 8.4209C39.6439 8.4209 39.5719 8.45825 39.5278 8.46059L39.5045 8.44426C39.4883 8.3999 39.5045 8.38589 39.5045 8.35087C39.4093 8.37889 39.2305 8.45592 39.184 8.39523C39.184 8.36721 39.1677 8.3392 39.1585 8.31119C39.1492 8.28318 39.177 8.26683 39.2026 8.25049L39.4534 8.17812C39.4418 8.1361 39.414 8.12443 39.4093 8.07774C39.4534 8.03572 39.5138 8.04739 39.5765 8.01237C39.6333 7.96878 39.694 7.9305 39.7577 7.89798C39.7415 7.84429 39.6973 7.82562 39.6834 7.77192C39.7716 7.74624 39.9296 7.72756 40.0179 7.70188C40.0179 7.73223 39.997 7.71823 40.0179 7.75324C40.0388 7.72756 40.0829 7.72056 40.1131 7.70421C40.2063 7.65514 40.3044 7.61602 40.4057 7.58749C40.3766 7.53335 40.3406 7.48314 40.2989 7.43808C40.2246 7.34003 40.1595 7.23732 40.0875 7.14161C40.0155 7.04589 39.9877 6.9852 39.9273 6.90816C39.767 6.69572 39.6137 6.46227 39.4511 6.24516C39.3977 6.17746 39.3628 6.10742 39.3094 6.03738C39.2235 5.92299 39.1468 5.80394 39.0586 5.68255C38.9914 5.60867 38.9379 5.52327 38.9006 5.43042L39.688 5.19697C39.7322 5.23199 39.7902 5.25534 39.8344 5.28802C39.9342 5.36039 40.0411 5.41875 40.1433 5.49112C40.1735 5.51213 40.2083 5.5238 40.2362 5.54481C40.573 5.77826 40.933 5.97903 41.2791 6.21948C41.3557 6.27551 41.4486 6.3152 41.5276 6.36889C41.6461 6.45527 41.7738 6.5253 41.8923 6.60234C41.9241 6.61782 41.9551 6.63496 41.9852 6.65369C42.0458 6.7027 42.1121 6.74425 42.1826 6.77743C42.2128 6.74475 42.3011 6.7284 42.3452 6.70272C42.466 6.63502 42.6193 6.593 42.7447 6.52764L42.8283 6.49729C42.9421 6.43659 43.0908 6.4109 43.2069 6.34554L43.3277 6.30586C43.3649 6.28251 43.4206 6.28017 43.4647 6.25683C43.6197 6.19211 43.7797 6.14057 43.9432 6.10276L45.0163 5.79227C44.9964 5.72599 44.9683 5.66247 44.9327 5.60317C44.8978 5.54014 44.8816 5.4701 44.8491 5.41174L44.8119 5.31603C44.7445 5.19931 44.7074 5.05457 44.64 4.93785L44.6145 4.87014C44.5657 4.78376 44.5425 4.67872 44.4891 4.58767C44.4356 4.49663 44.4426 4.45928 44.4054 4.39624C44.3681 4.33006 44.337 4.2605 44.3125 4.18847C44.3033 4.18719 44.2939 4.18719 44.2847 4.18847C44.1174 3.98771 43.9339 3.79395 43.7644 3.60019C43.2371 2.98622 42.6959 2.38858 42.171 1.77694L41.6136 1.13963L41.4533 0.957545C41.4324 0.931865 41.4184 0.896837 41.3906 0.887499C41.2953 0.859485 41.2837 0.927194 41.2466 0.780121L42.1431 0.520996C42.1707 0.541246 42.1994 0.559948 42.2291 0.577022C42.3034 0.630715 42.38 0.682074 42.4613 0.738102C42.6936 0.90852 42.9259 1.06493 43.1581 1.23535C43.8201 1.73026 44.5053 2.19248 45.1696 2.68506C45.2625 2.75042 45.3647 2.81346 45.4553 2.88116C45.7038 3.06325 45.9593 3.23133 46.2032 3.41576L46.3751 3.53715L46.4703 3.58385L46.9581 3.9597C46.9581 3.9597 47.0951 4.05774 47.1137 4.07408C47.2229 4.15813 47.346 4.23283 47.4505 4.30753C47.555 4.38224 47.627 4.42426 47.713 4.48496C47.7989 4.54565 47.8593 4.60401 47.9452 4.65537C47.9952 4.67844 48.0473 4.69643 48.1009 4.70907C48.1543 4.72541 48.2054 4.75575 48.2588 4.77209C48.2935 4.78085 48.3276 4.79176 48.361 4.80478C48.3616 4.80943 48.3616 4.81414 48.361 4.81879L51.6825 3.8523C51.7266 3.8523 51.8311 3.80796 51.8869 3.80329C52.0495 3.76594 52.212 3.73325 52.3746 3.69823C52.5372 3.66322 52.6487 3.6422 52.7811 3.6352C53.1522 3.59539 53.5269 3.60324 53.896 3.65855L54.0888 3.7099H54.105C54.2081 3.73613 54.2991 3.79711 54.3629 3.88265C54.4325 3.98771 54.3373 4.14179 54.2955 4.19782C54.253 4.25788 54.2073 4.31555 54.1585 4.37057C53.9786 4.54069 53.7798 4.68951 53.5662 4.81411C53.0087 5.18063 52.226 5.41642 51.4154 5.6522L48.8348 6.4039C48.8348 6.44125 48.7837 6.47393 48.7605 6.50428C48.7373 6.53463 48.6792 6.62102 48.6328 6.67471C48.5863 6.7284 48.5677 6.7354 48.5561 6.77275C48.4562 7.01788 48.354 7.26301 48.2635 7.51046L48.1078 7.88397L47.8755 8.47227Z" fill="#DBDBDB"/>
</g>
<defs>
<clipPath id="clip0_56_811">
<rect width="137" height="39" fill="white" transform="translate(0 0.5)"/>
</clipPath>
</defs>
</svg>
