<svg width="158" height="32" viewBox="0 0 158 32" fill="none" xmlns="http://www.w3.org/2000/svg">
<path fill-rule="evenodd" clip-rule="evenodd" d="M3.26962 31.3702C4.03195 31.3681 4.53567 31.4153 4.95972 31.3895C5.43856 31.3607 5.81751 31.2389 6.35611 30.848C7.75783 29.8286 7.95707 28.6765 7.97104 27.2052L8.11376 12.2474C8.12021 11.506 7.9705 11.2484 8.62602 11.6322L16.7848 16.4206C18.1951 17.2487 18.836 17.0452 20.2934 16.5212L28.4742 11.6438C29.1753 11.1832 29.2917 11.2489 29.3106 12.0555C29.3953 15.533 29.3128 19.1184 29.3128 22.5952C29.3128 24.1018 29.2604 25.7248 29.3021 27.259C29.3107 27.5714 29.3213 27.8803 29.3392 28.1842C29.4903 29.5854 30.5819 31.0958 31.7571 31.1678L34.9861 31.172C35.8798 30.9107 37.2243 29.8617 37.2714 27.4492L37.2542 6.04928C37.4444 4.13196 36.8308 1.39009 34.6229 0.883087C32.5395 0.579187 32.1884 0.900249 30.906 1.62884L19.7852 8.14997C19.1005 8.55208 18.8014 8.76601 17.6547 7.99465L6.22624 1.4137C4.01598 -0.0228386 0.365974 1.01586 0.0889388 3.93901L0 27.3425C0.05545 29.1945 1.2128 31.3769 3.26896 31.3696" fill="#DBDBDB"/>
<path fill-rule="evenodd" clip-rule="evenodd" d="M49.778 15.6994C50.2087 11.1806 52.9274 8.12247 57.7347 8.04445C62.3416 7.97009 65.2258 11.4159 65.3116 15.8657C65.3664 18.7009 64.8284 19.7752 63.1251 22.0469C62.1936 23.2875 59.3035 24.2896 57.8424 24.3016C52.9383 24.3431 49.3114 20.6116 49.778 15.6994ZM41.6346 15.5343C41.4616 24.9615 48.5195 31.582 57.9559 31.3986C66.9341 31.2233 73.6557 24.7739 73.7732 15.644C73.8871 6.83949 66.5449 0.628389 57.8424 0.578312C49.2986 0.529095 41.7953 6.83384 41.6346 15.5343Z" fill="#DBDBDB"/>
<path fill-rule="evenodd" clip-rule="evenodd" d="M96.8515 12.8886C96.436 12.9842 94.5937 13.7665 94.2646 14.0089C93.201 14.7923 93.0772 15.5679 93.1163 16.3094C93.1608 17.1367 93.9973 18.1292 95.2785 18.3222C97.0372 18.377 99.3871 18.9869 100.08 20.5978C100.501 21.5785 100.065 23.9795 98.216 24.3378L86.6798 24.2616C86.09 24.1872 85.9346 23.8687 85.928 23.0883L85.8104 9.23013C85.804 8.37968 85.8689 7.66981 86.8046 7.67238L95.477 7.69377C96.6309 7.69592 97.8214 8.21161 98.352 9.27354C98.8551 10.2787 98.832 12.1827 96.8515 12.8887V12.8886ZM103.555 15.5344C103.355 15.3418 103.363 15.0974 103.602 14.7952C109.64 8.66349 104.69 0.244585 96.2209 0.715481L81.5451 0.778315C79.9265 0.881262 78.1433 1.55005 78.1287 4.39949L78.011 26.495C78.0174 28.8656 79.1216 31.3463 81.7682 31.3573L96.4317 31.42C109.218 31.6046 110.595 19.163 103.555 15.5344Z" fill="#DBDBDB"/>
<path fill-rule="evenodd" clip-rule="evenodd" d="M115.462 31.3988L130.911 31.3567C131.893 31.3545 132.776 31.1331 133.998 30.4616C135.523 29.6228 135.642 26.8169 134.728 25.5082C133.906 24.33 132.692 23.9139 131.379 23.8987L120.443 23.7695C119.062 23.6968 119.356 22.2805 119.359 21.1206L119.355 4.67988C119.387 3.64288 119.16 2.97523 118.476 2.1063C117.178 0.214766 113.252 0.227072 112.003 2.86739C111.461 4.01465 111.513 4.44939 111.516 5.73377L111.517 25.5464C111.517 25.7267 111.522 25.9 111.513 26.0657C111.392 28.619 111.89 31.4085 115.462 31.3988Z" fill="#DBDBDB"/>
<path fill-rule="evenodd" clip-rule="evenodd" d="M139.085 20.0664L139.089 28.2409C139.09 28.7636 139.171 29.1273 139.239 29.2438C140.534 32.3294 146.262 31.6059 146.959 29.038C147.024 28.868 146.992 28.6072 147.002 28.3641L147.049 21.3475C146.953 19.4375 147.591 19.25 148.482 18.204L157.73 5.57964C158.46 3.82501 157.62 2.31473 156.283 1.31792C154.922 0.301767 152.788 0.554098 151.609 1.58723L139.978 17.1055C139.597 17.7204 139.091 18.9284 139.086 20.0664" fill="#DBDBDB"/>
<path fill-rule="evenodd" clip-rule="evenodd" d="M129.769 7.06176L134.926 13.2644C136.071 14.6418 138.512 14.5163 139.964 13.2967C141.127 12.3194 141.497 10.3353 140.648 8.59891L135.376 1.92601C133.884 0.394469 131.595 0.476795 130.09 1.93676C129.846 2.17361 129.629 2.43687 129.441 2.71412C128.468 4.16227 128.777 5.70114 129.769 7.06203" fill="#DBDBDB"/>
</svg>
