<svg width="192" height="44" viewBox="0 0 192 44" fill="none" xmlns="http://www.w3.org/2000/svg">
<g clip-path="url(#clip0_56_836)">
<path d="M122.024 27.541C118.681 27.541 115.96 24.8196 115.96 21.4754C115.96 18.1311 118.681 15.4098 122.024 15.4098C125.367 15.4098 128.087 18.1311 128.087 21.4754C128.087 24.8524 125.334 27.541 122.024 27.541ZM122.024 11.8032C116.681 11.8032 112.355 16.1311 112.355 21.4754C112.355 26.8196 116.681 31.1475 122.024 31.1475C127.366 31.1475 131.693 26.8196 131.693 21.4754C131.693 16.1639 127.366 11.8032 122.024 11.8032Z" fill="#DBDBDB"/>
<path d="M110.192 28.0328H110.978V31.6721H110.192C106.029 31.6721 102.621 28.2623 102.621 24.0983V7.47534H106.259V12.3278H110.946V15.9672H106.259V24.1311C106.259 26.2622 108.029 28.0328 110.192 28.0328Z" fill="#DBDBDB"/>
<path d="M154.505 27.541C151.161 27.541 148.441 24.8196 148.441 21.4754C148.441 18.1311 151.161 15.4098 154.505 15.4098C157.848 15.4098 160.568 18.1311 160.568 21.4754C160.535 24.8524 157.815 27.541 154.505 27.541ZM154.505 11.8032C149.162 11.8032 144.836 16.1311 144.836 21.4754C144.836 26.8196 149.162 31.1475 154.505 31.1475C159.847 31.1475 164.173 26.8196 164.173 21.4754C164.173 16.1639 159.847 11.8032 154.505 11.8032Z" fill="#DBDBDB"/>
<path d="M182.331 27.541C178.988 27.541 176.268 24.8196 176.268 21.4754C176.268 18.1311 178.988 15.4098 182.331 15.4098C185.674 15.4098 188.395 18.1311 188.395 21.4754C188.395 24.8524 185.642 27.541 182.331 27.541ZM182.331 11.8032C176.989 11.8032 172.662 16.1311 172.662 21.4754C172.662 26.8196 176.989 31.1475 182.331 31.1475C184.691 31.1475 186.854 30.2951 188.526 28.8852V30.7869H192V21.7705C192 21.6721 192 21.5737 192 21.4754C192 16.1639 187.674 11.8032 182.331 11.8032Z" fill="#DBDBDB"/>
<path d="M141.689 11.8032H143.426V15.4426H141.689C139.526 15.4426 137.756 17.2131 137.756 19.377V21.7377V26.2295V30.918H134.118V19.377C134.118 15.2131 137.527 11.8032 141.689 11.8032Z" fill="#DBDBDB"/>
<path d="M170.237 6.98364H166.599V30.8526H170.237V6.98364Z" fill="#DBDBDB"/>
<path d="M78.4323 19.8688V31.377H74.7942V19.8688C74.7942 17.7049 73.0243 15.9344 70.8611 15.9344C68.6979 15.9344 66.928 17.7049 66.928 19.8688V31.377H63.2899V19.8688C63.2899 17.7049 61.52 15.9344 59.3568 15.9344C57.1936 15.9344 55.4237 17.7049 55.4237 19.8688V31.377H51.7856V19.8688C51.7856 15.7049 55.1943 12.295 59.324 12.295C61.6511 12.295 63.6832 13.3114 65.0926 14.9508C66.5019 13.3114 68.534 12.295 70.8611 12.295C75.0236 12.295 78.4323 15.7049 78.4323 19.8688Z" fill="#DBDBDB"/>
<path d="M90.5593 28.0328C87.2162 28.0328 84.4958 25.3115 84.4958 21.9672C84.4958 18.6229 87.2162 15.9016 90.5593 15.9016C93.9024 15.9016 96.6228 18.6229 96.6228 21.9672C96.6228 25.3115 93.8696 28.0328 90.5593 28.0328ZM90.5593 12.295C85.1841 12.295 80.8577 16.6229 80.8577 21.9672C80.8577 27.3115 85.1841 31.6393 90.5265 31.6393C95.8689 31.6393 100.195 27.3115 100.195 21.9672C100.228 16.6557 95.9017 12.295 90.5593 12.295Z" fill="#DBDBDB"/>
<path d="M21.9925 -0.00012207C9.83271 -0.00012207 0 9.83596 0 21.9999C0 34.1639 9.83271 44 21.9925 44C34.1523 44 43.985 34.1639 43.985 21.9999C43.985 9.90153 34.2834 -0.00012207 21.9925 -0.00012207Z" fill="#DBDBDB"/>
<path d="M28.5476 5.40979L22.0253 27.0492L21.9924 27.082L21.9269 27.0492L15.4046 5.40979L6.9812 33.1147H8.55443C8.55443 33.1147 9.60326 28.2951 11.3404 25.4098C12.2909 23.8361 13.733 22.5574 15.6668 22.5902C17.0433 22.623 18.2233 23.377 19.6982 25.4426C20.0259 25.9016 20.4192 26.6557 20.8125 27.377C21.4353 28.5901 21.9597 29.8361 21.9597 29.8361C21.9597 29.8361 23.3363 26.6885 24.2212 25.4426C25.6961 23.377 26.876 22.6229 28.2526 22.5902C30.1864 22.5573 31.6613 23.8361 32.579 25.4098C34.3161 28.2951 35.365 33.1147 35.365 33.1147H36.9382L28.5476 5.40979Z" fill="#FFFEFC"/>
</g>
<defs>
<clipPath id="clip0_56_836">
<rect width="192" height="44" fill="white"/>
</clipPath>
</defs>
</svg>
